<?xml version="1.0" encoding="UTF-8" standalone="no"?>
<!DOCTYPE svg PUBLIC "-//W3C//DTD SVG 1.1//EN" "http://www.w3.org/Graphics/SVG/1.1/DTD/svg11.dtd">
<svg width="100%" height="100%" viewBox="0 0 2560 804" version="1.1" xmlns="http://www.w3.org/2000/svg" xmlns:xlink="http://www.w3.org/1999/xlink" xml:space="preserve" xmlns:serif="http://www.serif.com/" style="fill-rule:evenodd;clip-rule:evenodd;stroke-linecap:square;stroke-linejoin:round;stroke-miterlimit:1.5;">
    <g id="Artboard1" transform="matrix(1,0,0,0.55816,0,0)">
        <rect x="0" y="0" width="2560" height="1440" style="fill:none;"/>
        <g transform="matrix(1.71988,0,0,3.08135,-1759.7,-894.181)">
            <g transform="matrix(0.943635,0,0,0.943635,123.038,18.9853)">
                <path d="M1953.99,336.828L2182.89,336.828" style="fill:none;stroke:rgb(255,0,109);stroke-width:4.93px;"/>
            </g>
            <g transform="matrix(0.977438,0,0,0.977438,49.2512,26.8531)">
                <path d="M1953.99,336.828L2182.89,336.828" style="fill:none;stroke:rgb(255,0,109);stroke-width:4.76px;"/>
            </g>
        </g>
        <g transform="matrix(-1.71988,0,0,3.08135,4237.57,-894.181)">
            <g transform="matrix(0.943635,0,0,0.943635,123.038,18.9853)">
                <path d="M1953.99,336.828L2182.89,336.828" style="fill:none;stroke:rgb(255,0,109);stroke-width:4.93px;"/>
            </g>
            <g transform="matrix(0.977438,0,0,0.977438,49.2512,26.8531)">
                <path d="M1953.99,336.828L2182.89,336.828" style="fill:none;stroke:rgb(255,0,109);stroke-width:4.76px;"/>
            </g>
        </g>
        <g transform="matrix(1.71988,0,0,3.08135,-1759.7,-872.662)">
            <g transform="matrix(7.18431,0,0,7.18431,-10509.7,-3959.08)">
                <g transform="matrix(12,0,0,12,1731.91,604.031)">
                </g>
                <text x="1679.83px" y="604.031px" style="font-family:'MonaspaceKrypton-Bold', 'Monaspace Krypton';font-weight:700;font-size:12px;fill:rgb(255,0,109);">GIRAFFE</text>
            </g>
            <g transform="matrix(7.18431,0,0,7.18431,-10776.9,-3638.66)">
                <g transform="matrix(12,0,0,12,1709.59,604.031)">
                    <path d="M0.077,-0L0.403,-0L0.53,-0.154L0.53,-0.264L0.234,-0.509L0.234,-0.542L0.271,-0.597L0.523,-0.597L0.509,-0.73L0.195,-0.73L0.068,-0.577L0.068,-0.467L0.364,-0.222L0.364,-0.188L0.327,-0.134L0.063,-0.134L0.077,-0Z" style="fill:rgb(255,0,109);fill-rule:nonzero;"/>
                </g>
                <g transform="matrix(12,0,0,12,1709.59,604.031)">
                </g>
                <g transform="matrix(12,0,0,12,1717.03,604.031)">
                    <path d="M0.203,-0L0.351,-0L0.351,-0.608L0.577,-0.608L0.568,-0.73L-0.016,-0.73L-0.026,-0.608L0.203,-0.608L0.203,-0Z" style="fill:rgb(255,0,109);fill-rule:nonzero;"/>
                </g>
                <g transform="matrix(12,0,0,12,1717.03,604.031)">
                </g>
                <g transform="matrix(12,0,0,12,1769.05,604.031)">
                    <path d="M0.083,-0L0.476,-0L0.486,-0.122L0.353,-0.122L0.353,-0.608L0.486,-0.608L0.476,-0.73L0.083,-0.73L0.073,-0.608L0.205,-0.608L0.205,-0.122L0.073,-0.122L0.083,-0Z" style="fill:rgb(255,0,109);fill-rule:nonzero;"/>
                </g>
                <g transform="matrix(12,0,0,12,1769.05,604.031)">
                </g>
                <g transform="matrix(12,0,0,12,1776.49,604.031)">
                    <path d="M0.237,-0L0.385,-0L0.385,-0.608L0.62,-0.608L0.611,-0.73L0.01,-0.73L0,-0.608L0.237,-0.608L0.237,-0Z" style="fill:rgb(255,0,109);fill-rule:nonzero;"/>
                </g>
                <g transform="matrix(12,0,0,12,1776.49,604.031)">
                </g>
                <g transform="matrix(12,0,0,12,1783.93,604.031)">
                    <path d="M0.145,-0L0.538,-0L0.548,-0.122L0.414,-0.122L0.414,-0.608L0.548,-0.608L0.538,-0.73L0.145,-0.73L0.135,-0.608L0.266,-0.608L0.266,-0.122L0.135,-0.122L0.145,-0Z" style="fill:rgb(255,0,109);fill-rule:nonzero;"/>
                </g>
                <g transform="matrix(12,0,0,12,1783.93,604.031)">
                </g>
                <g transform="matrix(12,0,0,12,1806.25,604.031)">
                </g>
                <text x="1679.83px" y="604.031px" style="font-family:'MonaspaceKrypton-Bold', 'Monaspace Krypton';font-weight:700;font-size:12px;fill:rgb(255,0,109);">CHRI<tspan x="1724.47px " y="604.031px ">M</tspan>AS ED<tspan x="1791.37px " y="604.031px ">O</tspan>N</text>
            </g>
        </g>
        <g transform="matrix(1.71988,0,0,3.08135,-1759.7,-894.181)">
            <g transform="matrix(7.18431,0,0,7.18431,-10509.7,-3959.08)">
                <g transform="matrix(12,0,0,12,1731.91,604.031)">
                </g>
                <text x="1679.83px" y="604.031px" style="font-family:'MonaspaceKrypton-Bold', 'Monaspace Krypton';font-weight:700;font-size:12px;fill:rgb(237,255,163);">GIRAFFE</text>
            </g>
            <g transform="matrix(7.18431,0,0,7.18431,-10776.9,-3638.66)">
                <g transform="matrix(12,0,0,12,1709.59,604.031)">
                    <path d="M0.077,-0L0.403,-0L0.53,-0.154L0.53,-0.264L0.234,-0.509L0.234,-0.542L0.271,-0.597L0.523,-0.597L0.509,-0.73L0.195,-0.73L0.068,-0.577L0.068,-0.467L0.364,-0.222L0.364,-0.188L0.327,-0.134L0.063,-0.134L0.077,-0Z" style="fill:rgb(237,255,163);fill-rule:nonzero;"/>
                </g>
                <g transform="matrix(12,0,0,12,1709.59,604.031)">
                </g>
                <g transform="matrix(12,0,0,12,1717.03,604.031)">
                    <path d="M0.203,-0L0.351,-0L0.351,-0.608L0.577,-0.608L0.568,-0.73L-0.016,-0.73L-0.026,-0.608L0.203,-0.608L0.203,-0Z" style="fill:rgb(237,255,163);fill-rule:nonzero;"/>
                </g>
                <g transform="matrix(12,0,0,12,1717.03,604.031)">
                </g>
                <g transform="matrix(12,0,0,12,1769.05,604.031)">
                    <path d="M0.083,-0L0.476,-0L0.486,-0.122L0.353,-0.122L0.353,-0.608L0.486,-0.608L0.476,-0.73L0.083,-0.73L0.073,-0.608L0.205,-0.608L0.205,-0.122L0.073,-0.122L0.083,-0Z" style="fill:rgb(237,255,163);fill-rule:nonzero;"/>
                </g>
                <g transform="matrix(12,0,0,12,1769.05,604.031)">
                </g>
                <g transform="matrix(12,0,0,12,1776.49,604.031)">
                    <path d="M0.237,-0L0.385,-0L0.385,-0.608L0.62,-0.608L0.611,-0.73L0.01,-0.73L0,-0.608L0.237,-0.608L0.237,-0Z" style="fill:rgb(237,255,163);fill-rule:nonzero;"/>
                </g>
                <g transform="matrix(12,0,0,12,1776.49,604.031)">
                </g>
                <g transform="matrix(12,0,0,12,1783.93,604.031)">
                    <path d="M0.145,-0L0.538,-0L0.548,-0.122L0.414,-0.122L0.414,-0.608L0.548,-0.608L0.538,-0.73L0.145,-0.73L0.135,-0.608L0.266,-0.608L0.266,-0.122L0.135,-0.122L0.145,-0Z" style="fill:rgb(237,255,163);fill-rule:nonzero;"/>
                </g>
                <g transform="matrix(12,0,0,12,1783.93,604.031)">
                </g>
                <g transform="matrix(12,0,0,12,1806.25,604.031)">
                </g>
                <text x="1679.83px" y="604.031px" style="font-family:'MonaspaceKrypton-Bold', 'Monaspace Krypton';font-weight:700;font-size:12px;fill:rgb(237,255,163);">CHRI<tspan x="1724.47px " y="604.031px ">M</tspan>AS ED<tspan x="1791.37px " y="604.031px ">O</tspan>N</text>
            </g>
        </g>
        <g transform="matrix(1.71988,0,0,3.08135,-1721.67,-810.088)">
            <path d="M1677.6,492.966L1690.97,422.13L1696.87,417.243L1727.55,417.243L1733.45,424.357L1704.14,579.537L1698.24,584.424L1669.37,584.424L1663.64,580.222L1641.14,508.587L1627.74,579.537L1621.84,584.424L1591.16,584.424L1585.26,577.31L1614.57,422.13L1620.47,417.243L1649.95,417.243L1655.68,421.485L1677.6,492.966ZM1208.19,458.745C1209.56,451.485 1212.53,445.073 1217.08,439.501C1221.45,434.14 1226.78,429.667 1233.07,426.086C1238.91,422.775 1245.32,420.245 1252.28,418.511C1259.19,416.79 1265.99,415.936 1272.68,415.936C1279.45,415.936 1285.99,416.809 1292.32,418.548C1298.82,420.335 1304.55,422.952 1309.51,426.364L1309.74,426.529C1314.78,430.357 1318.55,435.144 1321.07,440.886C1323.62,446.703 1324.28,453.392 1322.85,460.973L1321.37,468.819L1315.48,473.705L1284.79,473.705L1278.9,466.592L1280.38,458.745C1280.87,456.153 1280.66,454.121 1278.91,452.895C1276.19,450.99 1272.69,450.167 1268.49,450.167C1263.94,450.167 1259.8,451.171 1256.08,453.229C1253.1,454.881 1251.32,457.481 1250.66,460.973L1235.18,542.922C1234.69,545.514 1234.9,547.546 1236.65,548.772C1239.37,550.677 1242.87,551.501 1247.08,551.501C1251.63,551.501 1255.76,550.497 1259.48,548.438C1262.46,546.786 1264.24,544.186 1264.9,540.695L1269.08,518.603L1251.95,518.603L1246.05,511.489L1249.76,491.874L1255.65,486.987L1310.7,486.987L1316.6,494.101L1307.37,542.922C1305.94,550.532 1302.92,557.027 1298.4,562.438C1294.05,567.639 1288.87,571.95 1282.85,575.356C1276.76,578.822 1270.24,581.423 1263.28,583.156C1256.37,584.877 1249.57,585.732 1242.88,585.732C1236.12,585.732 1229.57,584.859 1223.25,583.119C1216.68,581.316 1211.04,578.591 1206.28,575.005C1200.97,571.324 1197.05,566.676 1194.5,561.089C1191.91,555.435 1191.21,548.645 1192.71,540.695L1208.19,458.745ZM1315.74,577.31L1345.05,422.13L1350.94,417.243L1400.27,417.243C1420.38,417.243 1434.52,421.932 1442.97,430.389C1451.78,439.196 1455.03,452.295 1451.71,469.909C1449.78,480.104 1445.93,488.744 1440.23,495.865C1435.39,501.908 1428.42,507.045 1419.23,511.132L1437.5,576.815L1431.72,584.424L1399.24,584.424L1393.41,579.837L1378.46,518.167L1369.8,518.167L1358.21,579.537L1352.32,584.424L1321.63,584.424L1315.74,577.31ZM1382.64,450.167L1375.77,486.552L1385.98,486.552C1390.64,486.552 1394.46,486.14 1397.4,485.201C1399.83,484.426 1401.85,483.367 1403.45,481.923C1404.85,480.456 1405.94,478.649 1406.77,476.528C1407.81,473.858 1408.65,470.762 1409.32,467.246C1409.97,463.773 1410.3,460.721 1410.27,458.085C1410.25,456.417 1409.92,454.947 1409.18,453.698C1408.3,452.641 1406.85,451.993 1405,451.443C1402.03,450.559 1398.23,450.167 1393.61,450.167L1382.64,450.167ZM1446.18,575.744L1523.63,420.564L1529,417.243L1554.74,417.243L1560.69,422.521L1579.53,577.701L1573.57,584.424L1542.68,584.424L1536.7,578.923C1536.7,578.923 1534.38,551.077 1534.38,551.077L1501.65,551.077L1487.88,580.937L1482.43,584.424L1451.55,584.424L1446.18,575.744ZM1529.35,490.234L1516.56,518.154L1531.6,518.154L1529.35,490.234ZM1716.65,577.31L1745.96,422.13L1751.86,417.243L1797.28,417.243C1816.83,417.243 1830.81,421.506 1839.46,429.231C1848.76,437.543 1852.32,449.221 1849.44,464.46L1835.73,537.037C1832.64,553.396 1824.78,565.387 1812.36,573.157C1800.52,580.565 1784.85,584.424 1765.26,584.424L1722.55,584.424L1716.65,577.31ZM1783.56,450.167L1764.42,551.501L1771.32,551.501C1778.31,551.501 1783.57,550.532 1786.97,548.001C1790.09,545.685 1791.91,541.944 1792.85,536.99L1806.97,462.233C1807.72,458.289 1807.61,455.175 1805.81,453.015C1805.08,452.132 1803.84,451.634 1802.28,451.193C1799.77,450.48 1796.58,450.167 1792.73,450.167L1783.56,450.167ZM1884.74,577.31L1914.05,422.13L1919.95,417.243L1965.97,417.243C1974.98,417.243 1982.75,418.126 1989.29,419.836C1996.39,421.691 2002.51,424.994 2007.67,429.715C2013.15,434.735 2016.45,440.635 2017.65,447.359C2018.73,453.341 2018.4,461.442 2016.47,471.652C2015.07,479.105 2013.27,485.387 2011.12,490.511C2008.82,496.002 2005.19,501.184 2000.15,506.005C1994.41,511.643 1987.37,516.058 1978.99,519.201C1970.87,522.245 1960.68,523.834 1948.4,523.834L1937.74,523.834L1927.22,579.537L1921.32,584.424L1890.64,584.424L1884.74,577.31ZM1951.65,450.167L1943.95,490.911L1951.45,490.911C1956.82,490.911 1961.09,490.428 1964.24,489.299C1966.82,488.379 1968.87,487.175 1970.31,485.539L1970.41,485.426C1971.81,483.911 1972.79,482.025 1973.42,479.802C1974.28,476.762 1975.06,473.375 1975.76,469.643C1976.43,466.135 1976.96,462.802 1977.36,459.645C1977.62,457.621 1977.49,455.834 1976.78,454.305C1976.22,453.088 1975.12,452.261 1973.66,451.617C1971.24,450.547 1967.54,450.167 1962.62,450.167L1951.65,450.167ZM2007.16,577.31L2036.47,422.13L2042.37,417.243L2091.7,417.243C2111.8,417.243 2125.94,421.932 2134.4,430.389C2143.2,439.196 2146.46,452.295 2143.14,469.909C2141.21,480.104 2137.35,488.744 2131.65,495.865C2126.82,501.908 2119.85,507.045 2110.66,511.132L2128.93,576.815L2123.15,584.424L2090.66,584.424L2084.83,579.837L2069.89,518.167L2061.23,518.167L2049.64,579.537L2043.74,584.424L2013.06,584.424L2007.16,577.31ZM2074.07,450.167L2067.2,486.552L2077.41,486.552C2082.07,486.552 2085.88,486.14 2088.82,485.201C2091.25,484.426 2093.28,483.367 2094.87,481.923C2096.27,480.456 2097.37,478.649 2098.19,476.528C2099.24,473.858 2100.08,470.762 2100.74,467.246C2101.4,463.773 2101.73,460.721 2101.69,458.085C2101.67,456.417 2101.35,454.947 2100.61,453.698C2099.73,452.641 2098.27,451.993 2096.43,451.443C2093.46,450.559 2089.66,450.167 2085.04,450.167L2074.07,450.167ZM2136.2,577.31L2165.51,422.13L2171.41,417.243L2202.09,417.243L2207.99,424.357L2178.68,579.537L2172.78,584.424L2142.1,584.424L2136.2,577.31ZM2182.65,574.913L2239.49,496.163L2214.48,425.239L2220.14,417.243L2252.62,417.243L2258.35,421.442L2269.16,455.805L2294.33,419.806L2299.25,417.243L2331.73,417.243L2336.55,426.82L2283.59,498.136L2311.39,576.416L2305.73,584.424L2273.24,584.424L2267.54,580.268L2254.37,539.489L2224.93,581.848L2220.01,584.424L2187.52,584.424L2182.65,574.913Z" style="fill:rgb(247,5,106);"/>
        </g>
        <g transform="matrix(1.71988,0,0,3.08135,-1731.55,-831.532)">
            <path d="M1677.6,492.966L1690.97,422.13L1696.87,417.243L1727.55,417.243L1733.45,424.357L1704.14,579.537L1698.24,584.424L1669.37,584.424L1663.64,580.222L1641.14,508.587L1627.74,579.537L1621.84,584.424L1591.16,584.424L1585.26,577.31L1614.57,422.13L1620.47,417.243L1649.95,417.243L1655.68,421.485L1677.6,492.966ZM1208.19,458.745C1209.56,451.485 1212.53,445.073 1217.08,439.501C1221.45,434.14 1226.78,429.667 1233.07,426.086C1238.91,422.775 1245.32,420.245 1252.28,418.511C1259.19,416.79 1265.99,415.936 1272.68,415.936C1279.45,415.936 1285.99,416.809 1292.32,418.548C1298.82,420.335 1304.55,422.952 1309.51,426.364L1309.74,426.529C1314.78,430.357 1318.55,435.144 1321.07,440.886C1323.62,446.703 1324.28,453.392 1322.85,460.973L1321.37,468.819L1315.48,473.705L1284.79,473.705L1278.9,466.592L1280.38,458.745C1280.87,456.153 1280.66,454.121 1278.91,452.895C1276.19,450.99 1272.69,450.167 1268.49,450.167C1263.94,450.167 1259.8,451.171 1256.08,453.229C1253.1,454.881 1251.32,457.481 1250.66,460.973L1235.18,542.922C1234.69,545.514 1234.9,547.546 1236.65,548.772C1239.37,550.677 1242.87,551.501 1247.08,551.501C1251.63,551.501 1255.76,550.497 1259.48,548.438C1262.46,546.786 1264.24,544.186 1264.9,540.695L1269.08,518.603L1251.95,518.603L1246.05,511.489L1249.76,491.874L1255.65,486.987L1310.7,486.987L1316.6,494.101L1307.37,542.922C1305.94,550.532 1302.92,557.027 1298.4,562.438C1294.05,567.639 1288.87,571.95 1282.85,575.356C1276.76,578.822 1270.24,581.423 1263.28,583.156C1256.37,584.877 1249.57,585.732 1242.88,585.732C1236.12,585.732 1229.57,584.859 1223.25,583.119C1216.68,581.316 1211.04,578.591 1206.28,575.005C1200.97,571.324 1197.05,566.676 1194.5,561.089C1191.91,555.435 1191.21,548.645 1192.71,540.695L1208.19,458.745ZM1315.74,577.31L1345.05,422.13L1350.94,417.243L1400.27,417.243C1420.38,417.243 1434.52,421.932 1442.97,430.389C1451.78,439.196 1455.03,452.295 1451.71,469.909C1449.78,480.104 1445.93,488.744 1440.23,495.865C1435.39,501.908 1428.42,507.045 1419.23,511.132L1437.5,576.815L1431.72,584.424L1399.24,584.424L1393.41,579.837L1378.46,518.167L1369.8,518.167L1358.21,579.537L1352.32,584.424L1321.63,584.424L1315.74,577.31ZM1382.64,450.167L1375.77,486.552L1385.98,486.552C1390.64,486.552 1394.46,486.14 1397.4,485.201C1399.83,484.426 1401.85,483.367 1403.45,481.923C1404.85,480.456 1405.94,478.649 1406.77,476.528C1407.81,473.858 1408.65,470.762 1409.32,467.246C1409.97,463.773 1410.3,460.721 1410.27,458.085C1410.25,456.417 1409.92,454.947 1409.18,453.698C1408.3,452.641 1406.85,451.993 1405,451.443C1402.03,450.559 1398.23,450.167 1393.61,450.167L1382.64,450.167ZM1446.18,575.744L1523.63,420.564L1529,417.243L1554.74,417.243L1560.69,422.521L1579.53,577.701L1573.57,584.424L1542.68,584.424L1536.7,578.923C1536.7,578.923 1534.38,551.077 1534.38,551.077L1501.65,551.077L1487.88,580.937L1482.43,584.424L1451.55,584.424L1446.18,575.744ZM1529.35,490.234L1516.56,518.154L1531.6,518.154L1529.35,490.234ZM1716.65,577.31L1745.96,422.13L1751.86,417.243L1797.28,417.243C1816.83,417.243 1830.81,421.506 1839.46,429.231C1848.76,437.543 1852.32,449.221 1849.44,464.46L1835.73,537.037C1832.64,553.396 1824.78,565.387 1812.36,573.157C1800.52,580.565 1784.85,584.424 1765.26,584.424L1722.55,584.424L1716.65,577.31ZM1783.56,450.167L1764.42,551.501L1771.32,551.501C1778.31,551.501 1783.57,550.532 1786.97,548.001C1790.09,545.685 1791.91,541.944 1792.85,536.99L1806.97,462.233C1807.72,458.289 1807.61,455.175 1805.81,453.015C1805.08,452.132 1803.84,451.634 1802.28,451.193C1799.77,450.48 1796.58,450.167 1792.73,450.167L1783.56,450.167ZM1884.74,577.31L1914.05,422.13L1919.95,417.243L1965.97,417.243C1974.98,417.243 1982.75,418.126 1989.29,419.836C1996.39,421.691 2002.51,424.994 2007.67,429.715C2013.15,434.735 2016.45,440.635 2017.65,447.359C2018.73,453.341 2018.4,461.442 2016.47,471.652C2015.07,479.105 2013.27,485.387 2011.12,490.511C2008.82,496.002 2005.19,501.184 2000.15,506.005C1994.41,511.643 1987.37,516.058 1978.99,519.201C1970.87,522.245 1960.68,523.834 1948.4,523.834L1937.74,523.834L1927.22,579.537L1921.32,584.424L1890.64,584.424L1884.74,577.31ZM1951.65,450.167L1943.95,490.911L1951.45,490.911C1956.82,490.911 1961.09,490.428 1964.24,489.299C1966.82,488.379 1968.87,487.175 1970.31,485.539L1970.41,485.426C1971.81,483.911 1972.79,482.025 1973.42,479.802C1974.28,476.762 1975.06,473.375 1975.76,469.643C1976.43,466.135 1976.96,462.802 1977.36,459.645C1977.62,457.621 1977.49,455.834 1976.78,454.305C1976.22,453.088 1975.12,452.261 1973.66,451.617C1971.24,450.547 1967.54,450.167 1962.62,450.167L1951.65,450.167ZM2007.16,577.31L2036.47,422.13L2042.37,417.243L2091.7,417.243C2111.8,417.243 2125.94,421.932 2134.4,430.389C2143.2,439.196 2146.46,452.295 2143.14,469.909C2141.21,480.104 2137.35,488.744 2131.65,495.865C2126.82,501.908 2119.85,507.045 2110.66,511.132L2128.93,576.815L2123.15,584.424L2090.66,584.424L2084.83,579.837L2069.89,518.167L2061.23,518.167L2049.64,579.537L2043.74,584.424L2013.06,584.424L2007.16,577.31ZM2074.07,450.167L2067.2,486.552L2077.41,486.552C2082.07,486.552 2085.88,486.14 2088.82,485.201C2091.25,484.426 2093.28,483.367 2094.87,481.923C2096.27,480.456 2097.37,478.649 2098.19,476.528C2099.24,473.858 2100.08,470.762 2100.74,467.246C2101.4,463.773 2101.73,460.721 2101.69,458.085C2101.67,456.417 2101.35,454.947 2100.61,453.698C2099.73,452.641 2098.27,451.993 2096.43,451.443C2093.46,450.559 2089.66,450.167 2085.04,450.167L2074.07,450.167ZM2136.2,577.31L2165.51,422.13L2171.41,417.243L2202.09,417.243L2207.99,424.357L2178.68,579.537L2172.78,584.424L2142.1,584.424L2136.2,577.31ZM2182.65,574.913L2239.49,496.163L2214.48,425.239L2220.14,417.243L2252.62,417.243L2258.35,421.442L2269.16,455.805L2294.33,419.806L2299.25,417.243L2331.73,417.243L2336.55,426.82L2283.59,498.136L2311.39,576.416L2305.73,584.424L2273.24,584.424L2267.54,580.268L2254.37,539.489L2224.93,581.848L2220.01,584.424L2187.52,584.424L2182.65,574.913Z" style="fill:rgb(247,5,106);"/>
        </g>
        <g transform="matrix(1.71988,0,0,3.08135,-1741.1,-852.547)">
            <path d="M1677.6,492.966L1690.97,422.13L1696.87,417.243L1727.55,417.243L1733.45,424.357L1704.14,579.537L1698.24,584.424L1669.37,584.424L1663.64,580.222L1641.14,508.587L1627.74,579.537L1621.84,584.424L1591.16,584.424L1585.26,577.31L1614.57,422.13L1620.47,417.243L1649.95,417.243L1655.68,421.485L1677.6,492.966ZM1208.19,458.745C1209.56,451.485 1212.53,445.073 1217.08,439.501C1221.45,434.14 1226.78,429.667 1233.07,426.086C1238.91,422.775 1245.32,420.245 1252.28,418.511C1259.19,416.79 1265.99,415.936 1272.68,415.936C1279.45,415.936 1285.99,416.809 1292.32,418.548C1298.82,420.335 1304.55,422.952 1309.51,426.364L1309.74,426.529C1314.78,430.357 1318.55,435.144 1321.07,440.886C1323.62,446.703 1324.28,453.392 1322.85,460.973L1321.37,468.819L1315.48,473.705L1284.79,473.705L1278.9,466.592L1280.38,458.745C1280.87,456.153 1280.66,454.121 1278.91,452.895C1276.19,450.99 1272.69,450.167 1268.49,450.167C1263.94,450.167 1259.8,451.171 1256.08,453.229C1253.1,454.881 1251.32,457.481 1250.66,460.973L1235.18,542.922C1234.69,545.514 1234.9,547.546 1236.65,548.772C1239.37,550.677 1242.87,551.501 1247.08,551.501C1251.63,551.501 1255.76,550.497 1259.48,548.438C1262.46,546.786 1264.24,544.186 1264.9,540.695L1269.08,518.603L1251.95,518.603L1246.05,511.489L1249.76,491.874L1255.65,486.987L1310.7,486.987L1316.6,494.101L1307.37,542.922C1305.94,550.532 1302.92,557.027 1298.4,562.438C1294.05,567.639 1288.87,571.95 1282.85,575.356C1276.76,578.822 1270.24,581.423 1263.28,583.156C1256.37,584.877 1249.57,585.732 1242.88,585.732C1236.12,585.732 1229.57,584.859 1223.25,583.119C1216.68,581.316 1211.04,578.591 1206.28,575.005C1200.97,571.324 1197.05,566.676 1194.5,561.089C1191.91,555.435 1191.21,548.645 1192.71,540.695L1208.19,458.745ZM1315.74,577.31L1345.05,422.13L1350.94,417.243L1400.27,417.243C1420.38,417.243 1434.52,421.932 1442.97,430.389C1451.78,439.196 1455.03,452.295 1451.71,469.909C1449.78,480.104 1445.93,488.744 1440.23,495.865C1435.39,501.908 1428.42,507.045 1419.23,511.132L1437.5,576.815L1431.72,584.424L1399.24,584.424L1393.41,579.837L1378.46,518.167L1369.8,518.167L1358.21,579.537L1352.32,584.424L1321.63,584.424L1315.74,577.31ZM1382.64,450.167L1375.77,486.552L1385.98,486.552C1390.64,486.552 1394.46,486.14 1397.4,485.201C1399.83,484.426 1401.85,483.367 1403.45,481.923C1404.85,480.456 1405.94,478.649 1406.77,476.528C1407.81,473.858 1408.65,470.762 1409.32,467.246C1409.97,463.773 1410.3,460.721 1410.27,458.085C1410.25,456.417 1409.92,454.947 1409.18,453.698C1408.3,452.641 1406.85,451.993 1405,451.443C1402.03,450.559 1398.23,450.167 1393.61,450.167L1382.64,450.167ZM1446.18,575.744L1523.63,420.564L1529,417.243L1554.74,417.243L1560.69,422.521L1579.53,577.701L1573.57,584.424L1542.68,584.424L1536.7,578.923C1536.7,578.923 1534.38,551.077 1534.38,551.077L1501.65,551.077L1487.88,580.937L1482.43,584.424L1451.55,584.424L1446.18,575.744ZM1529.35,490.234L1516.56,518.154L1531.6,518.154L1529.35,490.234ZM1716.65,577.31L1745.96,422.13L1751.86,417.243L1797.28,417.243C1816.83,417.243 1830.81,421.506 1839.46,429.231C1848.76,437.543 1852.32,449.221 1849.44,464.46L1835.73,537.037C1832.64,553.396 1824.78,565.387 1812.36,573.157C1800.52,580.565 1784.85,584.424 1765.26,584.424L1722.55,584.424L1716.65,577.31ZM1783.56,450.167L1764.42,551.501L1771.32,551.501C1778.31,551.501 1783.57,550.532 1786.97,548.001C1790.09,545.685 1791.91,541.944 1792.85,536.99L1806.97,462.233C1807.72,458.289 1807.61,455.175 1805.81,453.015C1805.08,452.132 1803.84,451.634 1802.28,451.193C1799.77,450.48 1796.58,450.167 1792.73,450.167L1783.56,450.167ZM1884.74,577.31L1914.05,422.13L1919.95,417.243L1965.97,417.243C1974.98,417.243 1982.75,418.126 1989.29,419.836C1996.39,421.691 2002.51,424.994 2007.67,429.715C2013.15,434.735 2016.45,440.635 2017.65,447.359C2018.73,453.341 2018.4,461.442 2016.47,471.652C2015.07,479.105 2013.27,485.387 2011.12,490.511C2008.82,496.002 2005.19,501.184 2000.15,506.005C1994.41,511.643 1987.37,516.058 1978.99,519.201C1970.87,522.245 1960.68,523.834 1948.4,523.834L1937.74,523.834L1927.22,579.537L1921.32,584.424L1890.64,584.424L1884.74,577.31ZM1951.65,450.167L1943.95,490.911L1951.45,490.911C1956.82,490.911 1961.09,490.428 1964.24,489.299C1966.82,488.379 1968.87,487.175 1970.31,485.539L1970.41,485.426C1971.81,483.911 1972.79,482.025 1973.42,479.802C1974.28,476.762 1975.06,473.375 1975.76,469.643C1976.43,466.135 1976.96,462.802 1977.36,459.645C1977.62,457.621 1977.49,455.834 1976.78,454.305C1976.22,453.088 1975.12,452.261 1973.66,451.617C1971.24,450.547 1967.54,450.167 1962.62,450.167L1951.65,450.167ZM2007.16,577.31L2036.47,422.13L2042.37,417.243L2091.7,417.243C2111.8,417.243 2125.94,421.932 2134.4,430.389C2143.2,439.196 2146.46,452.295 2143.14,469.909C2141.21,480.104 2137.35,488.744 2131.65,495.865C2126.82,501.908 2119.85,507.045 2110.66,511.132L2128.93,576.815L2123.15,584.424L2090.66,584.424L2084.83,579.837L2069.89,518.167L2061.23,518.167L2049.64,579.537L2043.74,584.424L2013.06,584.424L2007.16,577.31ZM2074.07,450.167L2067.2,486.552L2077.41,486.552C2082.07,486.552 2085.88,486.14 2088.82,485.201C2091.25,484.426 2093.28,483.367 2094.87,481.923C2096.27,480.456 2097.37,478.649 2098.19,476.528C2099.24,473.858 2100.08,470.762 2100.74,467.246C2101.4,463.773 2101.73,460.721 2101.69,458.085C2101.67,456.417 2101.35,454.947 2100.61,453.698C2099.73,452.641 2098.27,451.993 2096.43,451.443C2093.46,450.559 2089.66,450.167 2085.04,450.167L2074.07,450.167ZM2136.2,577.31L2165.51,422.13L2171.41,417.243L2202.09,417.243L2207.99,424.357L2178.68,579.537L2172.78,584.424L2142.1,584.424L2136.2,577.31ZM2182.65,574.913L2239.49,496.163L2214.48,425.239L2220.14,417.243L2252.62,417.243L2258.35,421.442L2269.16,455.805L2294.33,419.806L2299.25,417.243L2331.73,417.243L2336.55,426.82L2283.59,498.136L2311.39,576.416L2305.73,584.424L2273.24,584.424L2267.54,580.268L2254.37,539.489L2224.93,581.848L2220.01,584.424L2187.52,584.424L2182.65,574.913Z" style="fill:rgb(63,3,124);"/>
        </g>
        <g transform="matrix(1.71988,0,0,3.08135,-1748.17,-867.582)">
            <path d="M1677.6,492.966L1690.97,422.13L1696.87,417.243L1727.55,417.243L1733.45,424.357L1704.14,579.537L1698.24,584.424L1669.37,584.424L1663.64,580.222L1641.14,508.587L1627.74,579.537L1621.84,584.424L1591.16,584.424L1585.26,577.31L1614.57,422.13L1620.47,417.243L1649.95,417.243L1655.68,421.485L1677.6,492.966ZM1208.19,458.745C1209.56,451.485 1212.53,445.073 1217.08,439.501C1221.45,434.14 1226.78,429.667 1233.07,426.086C1238.91,422.775 1245.32,420.245 1252.28,418.511C1259.19,416.79 1265.99,415.936 1272.68,415.936C1279.45,415.936 1285.99,416.809 1292.32,418.548C1298.82,420.335 1304.55,422.952 1309.51,426.364L1309.74,426.529C1314.78,430.357 1318.55,435.144 1321.07,440.886C1323.62,446.703 1324.28,453.392 1322.85,460.973L1321.37,468.819L1315.48,473.705L1284.79,473.705L1278.9,466.592L1280.38,458.745C1280.87,456.153 1280.66,454.121 1278.91,452.895C1276.19,450.99 1272.69,450.167 1268.49,450.167C1263.94,450.167 1259.8,451.171 1256.08,453.229C1253.1,454.881 1251.32,457.481 1250.66,460.973L1235.18,542.922C1234.69,545.514 1234.9,547.546 1236.65,548.772C1239.37,550.677 1242.87,551.501 1247.08,551.501C1251.63,551.501 1255.76,550.497 1259.48,548.438C1262.46,546.786 1264.24,544.186 1264.9,540.695L1269.08,518.603L1251.95,518.603L1246.05,511.489L1249.76,491.874L1255.65,486.987L1310.7,486.987L1316.6,494.101L1307.37,542.922C1305.94,550.532 1302.92,557.027 1298.4,562.438C1294.05,567.639 1288.87,571.95 1282.85,575.356C1276.76,578.822 1270.24,581.423 1263.28,583.156C1256.37,584.877 1249.57,585.732 1242.88,585.732C1236.12,585.732 1229.57,584.859 1223.25,583.119C1216.68,581.316 1211.04,578.591 1206.28,575.005C1200.97,571.324 1197.05,566.676 1194.5,561.089C1191.91,555.435 1191.21,548.645 1192.71,540.695L1208.19,458.745ZM1315.74,577.31L1345.05,422.13L1350.94,417.243L1400.27,417.243C1420.38,417.243 1434.52,421.932 1442.97,430.389C1451.78,439.196 1455.03,452.295 1451.71,469.909C1449.78,480.104 1445.93,488.744 1440.23,495.865C1435.39,501.908 1428.42,507.045 1419.23,511.132L1437.5,576.815L1431.72,584.424L1399.24,584.424L1393.41,579.837L1378.46,518.167L1369.8,518.167L1358.21,579.537L1352.32,584.424L1321.63,584.424L1315.74,577.31ZM1382.64,450.167L1375.77,486.552L1385.98,486.552C1390.64,486.552 1394.46,486.14 1397.4,485.201C1399.83,484.426 1401.85,483.367 1403.45,481.923C1404.85,480.456 1405.94,478.649 1406.77,476.528C1407.81,473.858 1408.65,470.762 1409.32,467.246C1409.97,463.773 1410.3,460.721 1410.27,458.085C1410.25,456.417 1409.92,454.947 1409.18,453.698C1408.3,452.641 1406.85,451.993 1405,451.443C1402.03,450.559 1398.23,450.167 1393.61,450.167L1382.64,450.167ZM1446.18,575.744L1523.63,420.564L1529,417.243L1554.74,417.243L1560.69,422.521L1579.53,577.701L1573.57,584.424L1542.68,584.424L1536.7,578.923C1536.7,578.923 1534.38,551.077 1534.38,551.077L1501.65,551.077L1487.88,580.937L1482.43,584.424L1451.55,584.424L1446.18,575.744ZM1529.35,490.234L1516.56,518.154L1531.6,518.154L1529.35,490.234ZM1716.65,577.31L1745.96,422.13L1751.86,417.243L1797.28,417.243C1816.83,417.243 1830.81,421.506 1839.46,429.231C1848.76,437.543 1852.32,449.221 1849.44,464.46L1835.73,537.037C1832.64,553.396 1824.78,565.387 1812.36,573.157C1800.52,580.565 1784.85,584.424 1765.26,584.424L1722.55,584.424L1716.65,577.31ZM1783.56,450.167L1764.42,551.501L1771.32,551.501C1778.31,551.501 1783.57,550.532 1786.97,548.001C1790.09,545.685 1791.91,541.944 1792.85,536.99L1806.97,462.233C1807.72,458.289 1807.61,455.175 1805.81,453.015C1805.08,452.132 1803.84,451.634 1802.28,451.193C1799.77,450.48 1796.58,450.167 1792.73,450.167L1783.56,450.167ZM1884.74,577.31L1914.05,422.13L1919.95,417.243L1965.97,417.243C1974.98,417.243 1982.75,418.126 1989.29,419.836C1996.39,421.691 2002.51,424.994 2007.67,429.715C2013.15,434.735 2016.45,440.635 2017.65,447.359C2018.73,453.341 2018.4,461.442 2016.47,471.652C2015.07,479.105 2013.27,485.387 2011.12,490.511C2008.82,496.002 2005.19,501.184 2000.15,506.005C1994.41,511.643 1987.37,516.058 1978.99,519.201C1970.87,522.245 1960.68,523.834 1948.4,523.834L1937.74,523.834L1927.22,579.537L1921.32,584.424L1890.64,584.424L1884.74,577.31ZM1951.65,450.167L1943.95,490.911L1951.45,490.911C1956.82,490.911 1961.09,490.428 1964.24,489.299C1966.82,488.379 1968.87,487.175 1970.31,485.539L1970.41,485.426C1971.81,483.911 1972.79,482.025 1973.42,479.802C1974.28,476.762 1975.06,473.375 1975.76,469.643C1976.43,466.135 1976.96,462.802 1977.36,459.645C1977.62,457.621 1977.49,455.834 1976.78,454.305C1976.22,453.088 1975.12,452.261 1973.66,451.617C1971.24,450.547 1967.54,450.167 1962.62,450.167L1951.65,450.167ZM2007.16,577.31L2036.47,422.13L2042.37,417.243L2091.7,417.243C2111.8,417.243 2125.94,421.932 2134.4,430.389C2143.2,439.196 2146.46,452.295 2143.14,469.909C2141.21,480.104 2137.35,488.744 2131.65,495.865C2126.82,501.908 2119.85,507.045 2110.66,511.132L2128.93,576.815L2123.15,584.424L2090.66,584.424L2084.83,579.837L2069.89,518.167L2061.23,518.167L2049.64,579.537L2043.74,584.424L2013.06,584.424L2007.16,577.31ZM2074.07,450.167L2067.2,486.552L2077.41,486.552C2082.07,486.552 2085.88,486.14 2088.82,485.201C2091.25,484.426 2093.28,483.367 2094.87,481.923C2096.27,480.456 2097.37,478.649 2098.19,476.528C2099.24,473.858 2100.08,470.762 2100.74,467.246C2101.4,463.773 2101.73,460.721 2101.69,458.085C2101.67,456.417 2101.35,454.947 2100.61,453.698C2099.73,452.641 2098.27,451.993 2096.43,451.443C2093.46,450.559 2089.66,450.167 2085.04,450.167L2074.07,450.167ZM2136.2,577.31L2165.51,422.13L2171.41,417.243L2202.09,417.243L2207.99,424.357L2178.68,579.537L2172.78,584.424L2142.1,584.424L2136.2,577.31ZM2182.65,574.913L2239.49,496.163L2214.48,425.239L2220.14,417.243L2252.62,417.243L2258.35,421.442L2269.16,455.805L2294.33,419.806L2299.25,417.243L2331.73,417.243L2336.55,426.82L2283.59,498.136L2311.39,576.416L2305.73,584.424L2273.24,584.424L2267.54,580.268L2254.37,539.489L2224.93,581.848L2220.01,584.424L2187.52,584.424L2182.65,574.913Z" style="fill:rgb(63,3,124);"/>
        </g>
        <g transform="matrix(1.71988,0,0,3.08135,-1754.87,-882.209)">
            <path d="M1677.6,492.966L1690.97,422.13L1696.87,417.243L1727.55,417.243L1733.45,424.357L1704.14,579.537L1698.24,584.424L1669.37,584.424L1663.64,580.222L1641.14,508.587L1627.74,579.537L1621.84,584.424L1591.16,584.424L1585.26,577.31L1614.57,422.13L1620.47,417.243L1649.95,417.243L1655.68,421.485L1677.6,492.966ZM1208.19,458.745C1209.56,451.485 1212.53,445.073 1217.08,439.501C1221.45,434.14 1226.78,429.667 1233.07,426.086C1238.91,422.775 1245.32,420.245 1252.28,418.511C1259.19,416.79 1265.99,415.936 1272.68,415.936C1279.45,415.936 1285.99,416.809 1292.32,418.548C1298.82,420.335 1304.55,422.952 1309.51,426.364L1309.74,426.529C1314.78,430.357 1318.55,435.144 1321.07,440.886C1323.62,446.703 1324.28,453.392 1322.85,460.973L1321.37,468.819L1315.48,473.705L1284.79,473.705L1278.9,466.592L1280.38,458.745C1280.87,456.153 1280.66,454.121 1278.91,452.895C1276.19,450.99 1272.69,450.167 1268.49,450.167C1263.94,450.167 1259.8,451.171 1256.08,453.229C1253.1,454.881 1251.32,457.481 1250.66,460.973L1235.18,542.922C1234.69,545.514 1234.9,547.546 1236.65,548.772C1239.37,550.677 1242.87,551.501 1247.08,551.501C1251.63,551.501 1255.76,550.497 1259.48,548.438C1262.46,546.786 1264.24,544.186 1264.9,540.695L1269.08,518.603L1251.95,518.603L1246.05,511.489L1249.76,491.874L1255.65,486.987L1310.7,486.987L1316.6,494.101L1307.37,542.922C1305.94,550.532 1302.92,557.027 1298.4,562.438C1294.05,567.639 1288.87,571.95 1282.85,575.356C1276.76,578.822 1270.24,581.423 1263.28,583.156C1256.37,584.877 1249.57,585.732 1242.88,585.732C1236.12,585.732 1229.57,584.859 1223.25,583.119C1216.68,581.316 1211.04,578.591 1206.28,575.005C1200.97,571.324 1197.05,566.676 1194.5,561.089C1191.91,555.435 1191.21,548.645 1192.71,540.695L1208.19,458.745ZM1315.74,577.31L1345.05,422.13L1350.94,417.243L1400.27,417.243C1420.38,417.243 1434.52,421.932 1442.97,430.389C1451.78,439.196 1455.03,452.295 1451.71,469.909C1449.78,480.104 1445.93,488.744 1440.23,495.865C1435.39,501.908 1428.42,507.045 1419.23,511.132L1437.5,576.815L1431.72,584.424L1399.24,584.424L1393.41,579.837L1378.46,518.167L1369.8,518.167L1358.21,579.537L1352.32,584.424L1321.63,584.424L1315.74,577.31ZM1382.64,450.167L1375.77,486.552L1385.98,486.552C1390.64,486.552 1394.46,486.14 1397.4,485.201C1399.83,484.426 1401.85,483.367 1403.45,481.923C1404.85,480.456 1405.94,478.649 1406.77,476.528C1407.81,473.858 1408.65,470.762 1409.32,467.246C1409.97,463.773 1410.3,460.721 1410.27,458.085C1410.25,456.417 1409.92,454.947 1409.18,453.698C1408.3,452.641 1406.85,451.993 1405,451.443C1402.03,450.559 1398.23,450.167 1393.61,450.167L1382.64,450.167ZM1446.18,575.744L1523.63,420.564L1529,417.243L1554.74,417.243L1560.69,422.521L1579.53,577.701L1573.57,584.424L1542.68,584.424L1536.7,578.923C1536.7,578.923 1534.38,551.077 1534.38,551.077L1501.65,551.077L1487.88,580.937L1482.43,584.424L1451.55,584.424L1446.18,575.744ZM1529.35,490.234L1516.56,518.154L1531.6,518.154L1529.35,490.234ZM1716.65,577.31L1745.96,422.13L1751.86,417.243L1797.28,417.243C1816.83,417.243 1830.81,421.506 1839.46,429.231C1848.76,437.543 1852.32,449.221 1849.44,464.46L1835.73,537.037C1832.64,553.396 1824.78,565.387 1812.36,573.157C1800.52,580.565 1784.85,584.424 1765.26,584.424L1722.55,584.424L1716.65,577.31ZM1783.56,450.167L1764.42,551.501L1771.32,551.501C1778.31,551.501 1783.57,550.532 1786.97,548.001C1790.09,545.685 1791.91,541.944 1792.85,536.99L1806.97,462.233C1807.72,458.289 1807.61,455.175 1805.81,453.015C1805.08,452.132 1803.84,451.634 1802.28,451.193C1799.77,450.48 1796.58,450.167 1792.73,450.167L1783.56,450.167ZM1884.74,577.31L1914.05,422.13L1919.95,417.243L1965.97,417.243C1974.98,417.243 1982.75,418.126 1989.29,419.836C1996.39,421.691 2002.51,424.994 2007.67,429.715C2013.15,434.735 2016.45,440.635 2017.65,447.359C2018.73,453.341 2018.4,461.442 2016.47,471.652C2015.07,479.105 2013.27,485.387 2011.12,490.511C2008.82,496.002 2005.19,501.184 2000.15,506.005C1994.41,511.643 1987.37,516.058 1978.99,519.201C1970.87,522.245 1960.68,523.834 1948.4,523.834L1937.74,523.834L1927.22,579.537L1921.32,584.424L1890.64,584.424L1884.74,577.31ZM1951.65,450.167L1943.95,490.911L1951.45,490.911C1956.82,490.911 1961.09,490.428 1964.24,489.299C1966.82,488.379 1968.87,487.175 1970.31,485.539L1970.41,485.426C1971.81,483.911 1972.79,482.025 1973.42,479.802C1974.28,476.762 1975.06,473.375 1975.76,469.643C1976.43,466.135 1976.96,462.802 1977.36,459.645C1977.62,457.621 1977.49,455.834 1976.78,454.305C1976.22,453.088 1975.12,452.261 1973.66,451.617C1971.24,450.547 1967.54,450.167 1962.62,450.167L1951.65,450.167ZM2007.16,577.31L2036.47,422.13L2042.37,417.243L2091.7,417.243C2111.8,417.243 2125.94,421.932 2134.4,430.389C2143.2,439.196 2146.46,452.295 2143.14,469.909C2141.21,480.104 2137.35,488.744 2131.65,495.865C2126.82,501.908 2119.85,507.045 2110.66,511.132L2128.93,576.815L2123.15,584.424L2090.66,584.424L2084.83,579.837L2069.89,518.167L2061.23,518.167L2049.64,579.537L2043.74,584.424L2013.06,584.424L2007.16,577.31ZM2074.07,450.167L2067.2,486.552L2077.41,486.552C2082.07,486.552 2085.88,486.14 2088.82,485.201C2091.25,484.426 2093.28,483.367 2094.87,481.923C2096.27,480.456 2097.37,478.649 2098.19,476.528C2099.24,473.858 2100.08,470.762 2100.74,467.246C2101.4,463.773 2101.73,460.721 2101.69,458.085C2101.67,456.417 2101.35,454.947 2100.61,453.698C2099.73,452.641 2098.27,451.993 2096.43,451.443C2093.46,450.559 2089.66,450.167 2085.04,450.167L2074.07,450.167ZM2136.2,577.31L2165.51,422.13L2171.41,417.243L2202.09,417.243L2207.99,424.357L2178.68,579.537L2172.78,584.424L2142.1,584.424L2136.2,577.31ZM2182.65,574.913L2239.49,496.163L2214.48,425.239L2220.14,417.243L2252.62,417.243L2258.35,421.442L2269.16,455.805L2294.33,419.806L2299.25,417.243L2331.73,417.243L2336.55,426.82L2283.59,498.136L2311.39,576.416L2305.73,584.424L2273.24,584.424L2267.54,580.268L2254.37,539.489L2224.93,581.848L2220.01,584.424L2187.52,584.424L2182.65,574.913Z" style="fill:rgb(63,3,124);"/>
        </g>
        <g transform="matrix(1.71988,0,0,3.08135,-1759.7,-894.181)">
            <path d="M1677.6,492.966L1690.97,422.13L1696.87,417.243L1727.55,417.243L1733.45,424.357L1704.14,579.537L1698.24,584.424L1669.37,584.424L1663.64,580.222L1641.14,508.587L1627.74,579.537L1621.84,584.424L1591.16,584.424L1585.26,577.31L1614.57,422.13L1620.47,417.243L1649.95,417.243L1655.68,421.485L1677.6,492.966ZM1208.19,458.745C1209.56,451.485 1212.53,445.073 1217.08,439.501C1221.45,434.14 1226.78,429.667 1233.07,426.086C1238.91,422.775 1245.32,420.245 1252.28,418.511C1259.19,416.79 1265.99,415.936 1272.68,415.936C1279.45,415.936 1285.99,416.809 1292.32,418.548C1298.82,420.335 1304.55,422.952 1309.51,426.364L1309.74,426.529C1314.78,430.357 1318.55,435.144 1321.07,440.886C1323.62,446.703 1324.28,453.392 1322.85,460.973L1321.37,468.819L1315.48,473.705L1284.79,473.705L1278.9,466.592L1280.38,458.745C1280.87,456.153 1280.66,454.121 1278.91,452.895C1276.19,450.99 1272.69,450.167 1268.49,450.167C1263.94,450.167 1259.8,451.171 1256.08,453.229C1253.1,454.881 1251.32,457.481 1250.66,460.973L1235.18,542.922C1234.69,545.514 1234.9,547.546 1236.65,548.772C1239.37,550.677 1242.87,551.501 1247.08,551.501C1251.63,551.501 1255.76,550.497 1259.48,548.438C1262.46,546.786 1264.24,544.186 1264.9,540.695L1269.08,518.603L1251.95,518.603L1246.05,511.489L1249.76,491.874L1255.65,486.987L1310.7,486.987L1316.6,494.101L1307.37,542.922C1305.94,550.532 1302.92,557.027 1298.4,562.438C1294.05,567.639 1288.87,571.95 1282.85,575.356C1276.76,578.822 1270.24,581.423 1263.28,583.156C1256.37,584.877 1249.57,585.732 1242.88,585.732C1236.12,585.732 1229.57,584.859 1223.25,583.119C1216.68,581.316 1211.04,578.591 1206.28,575.005C1200.97,571.324 1197.05,566.676 1194.5,561.089C1191.91,555.435 1191.21,548.645 1192.71,540.695L1208.19,458.745ZM1315.74,577.31L1345.05,422.13L1350.94,417.243L1400.27,417.243C1420.38,417.243 1434.52,421.932 1442.97,430.389C1451.78,439.196 1455.03,452.295 1451.71,469.909C1449.78,480.104 1445.93,488.744 1440.23,495.865C1435.39,501.908 1428.42,507.045 1419.23,511.132L1437.5,576.815L1431.72,584.424L1399.24,584.424L1393.41,579.837L1378.46,518.167L1369.8,518.167L1358.21,579.537L1352.32,584.424L1321.63,584.424L1315.74,577.31ZM1382.64,450.167L1375.77,486.552L1385.98,486.552C1390.64,486.552 1394.46,486.14 1397.4,485.201C1399.83,484.426 1401.85,483.367 1403.45,481.923C1404.85,480.456 1405.94,478.649 1406.77,476.528C1407.81,473.858 1408.65,470.762 1409.32,467.246C1409.97,463.773 1410.3,460.721 1410.27,458.085C1410.25,456.417 1409.92,454.947 1409.18,453.698C1408.3,452.641 1406.85,451.993 1405,451.443C1402.03,450.559 1398.23,450.167 1393.61,450.167L1382.64,450.167ZM1446.18,575.744L1523.63,420.564L1529,417.243L1554.74,417.243L1560.69,422.521L1579.53,577.701L1573.57,584.424L1542.68,584.424L1536.7,578.923C1536.7,578.923 1534.38,551.077 1534.38,551.077L1501.65,551.077L1487.88,580.937L1482.43,584.424L1451.55,584.424L1446.18,575.744ZM1529.35,490.234L1516.56,518.154L1531.6,518.154L1529.35,490.234ZM1716.65,577.31L1745.96,422.13L1751.86,417.243L1797.28,417.243C1816.83,417.243 1830.81,421.506 1839.46,429.231C1848.76,437.543 1852.32,449.221 1849.44,464.46L1835.73,537.037C1832.64,553.396 1824.78,565.387 1812.36,573.157C1800.52,580.565 1784.85,584.424 1765.26,584.424L1722.55,584.424L1716.65,577.31ZM1783.56,450.167L1764.42,551.501L1771.32,551.501C1778.31,551.501 1783.57,550.532 1786.97,548.001C1790.09,545.685 1791.91,541.944 1792.85,536.99L1806.97,462.233C1807.72,458.289 1807.61,455.175 1805.81,453.015C1805.08,452.132 1803.84,451.634 1802.28,451.193C1799.77,450.48 1796.58,450.167 1792.73,450.167L1783.56,450.167ZM1884.74,577.31L1914.05,422.13L1919.95,417.243L1965.97,417.243C1974.98,417.243 1982.75,418.126 1989.29,419.836C1996.39,421.691 2002.51,424.994 2007.67,429.715C2013.15,434.735 2016.45,440.635 2017.65,447.359C2018.73,453.341 2018.4,461.442 2016.47,471.652C2015.07,479.105 2013.27,485.387 2011.12,490.511C2008.82,496.002 2005.19,501.184 2000.15,506.005C1994.41,511.643 1987.37,516.058 1978.99,519.201C1970.87,522.245 1960.68,523.834 1948.4,523.834L1937.74,523.834L1927.22,579.537L1921.32,584.424L1890.64,584.424L1884.74,577.31ZM1951.65,450.167L1943.95,490.911L1951.45,490.911C1956.82,490.911 1961.09,490.428 1964.24,489.299C1966.82,488.379 1968.87,487.175 1970.31,485.539L1970.41,485.426C1971.81,483.911 1972.79,482.025 1973.42,479.802C1974.28,476.762 1975.06,473.375 1975.76,469.643C1976.43,466.135 1976.96,462.802 1977.36,459.645C1977.62,457.621 1977.49,455.834 1976.78,454.305C1976.22,453.088 1975.12,452.261 1973.66,451.617C1971.24,450.547 1967.54,450.167 1962.62,450.167L1951.65,450.167ZM2007.16,577.31L2036.47,422.13L2042.37,417.243L2091.7,417.243C2111.8,417.243 2125.94,421.932 2134.4,430.389C2143.2,439.196 2146.46,452.295 2143.14,469.909C2141.21,480.104 2137.35,488.744 2131.65,495.865C2126.82,501.908 2119.85,507.045 2110.66,511.132L2128.93,576.815L2123.15,584.424L2090.66,584.424L2084.83,579.837L2069.89,518.167L2061.23,518.167L2049.64,579.537L2043.74,584.424L2013.06,584.424L2007.16,577.31ZM2074.07,450.167L2067.2,486.552L2077.41,486.552C2082.07,486.552 2085.88,486.14 2088.82,485.201C2091.25,484.426 2093.28,483.367 2094.87,481.923C2096.27,480.456 2097.37,478.649 2098.19,476.528C2099.24,473.858 2100.08,470.762 2100.74,467.246C2101.4,463.773 2101.73,460.721 2101.69,458.085C2101.67,456.417 2101.35,454.947 2100.61,453.698C2099.73,452.641 2098.27,451.993 2096.43,451.443C2093.46,450.559 2089.66,450.167 2085.04,450.167L2074.07,450.167ZM2136.2,577.31L2165.51,422.13L2171.41,417.243L2202.09,417.243L2207.99,424.357L2178.68,579.537L2172.78,584.424L2142.1,584.424L2136.2,577.31ZM2182.65,574.913L2239.49,496.163L2214.48,425.239L2220.14,417.243L2252.62,417.243L2258.35,421.442L2269.16,455.805L2294.33,419.806L2299.25,417.243L2331.73,417.243L2336.55,426.82L2283.59,498.136L2311.39,576.416L2305.73,584.424L2273.24,584.424L2267.54,580.268L2254.37,539.489L2224.93,581.848L2220.01,584.424L2187.52,584.424L2182.65,574.913Z" style="fill:rgb(251,255,100);"/>
            <clipPath id="_clip1">
                <path d="M1677.6,492.966L1690.97,422.13L1696.87,417.243L1727.55,417.243L1733.45,424.357L1704.14,579.537L1698.24,584.424L1669.37,584.424L1663.64,580.222L1641.14,508.587L1627.74,579.537L1621.84,584.424L1591.16,584.424L1585.26,577.31L1614.57,422.13L1620.47,417.243L1649.95,417.243L1655.68,421.485L1677.6,492.966ZM1208.19,458.745C1209.56,451.485 1212.53,445.073 1217.08,439.501C1221.45,434.14 1226.78,429.667 1233.07,426.086C1238.91,422.775 1245.32,420.245 1252.28,418.511C1259.19,416.79 1265.99,415.936 1272.68,415.936C1279.45,415.936 1285.99,416.809 1292.32,418.548C1298.82,420.335 1304.55,422.952 1309.51,426.364L1309.74,426.529C1314.78,430.357 1318.55,435.144 1321.07,440.886C1323.62,446.703 1324.28,453.392 1322.85,460.973L1321.37,468.819L1315.48,473.705L1284.79,473.705L1278.9,466.592L1280.38,458.745C1280.87,456.153 1280.66,454.121 1278.91,452.895C1276.19,450.99 1272.69,450.167 1268.49,450.167C1263.94,450.167 1259.8,451.171 1256.08,453.229C1253.1,454.881 1251.32,457.481 1250.66,460.973L1235.18,542.922C1234.69,545.514 1234.9,547.546 1236.65,548.772C1239.37,550.677 1242.87,551.501 1247.08,551.501C1251.63,551.501 1255.76,550.497 1259.48,548.438C1262.46,546.786 1264.24,544.186 1264.9,540.695L1269.08,518.603L1251.95,518.603L1246.05,511.489L1249.76,491.874L1255.65,486.987L1310.7,486.987L1316.6,494.101L1307.37,542.922C1305.94,550.532 1302.92,557.027 1298.4,562.438C1294.05,567.639 1288.87,571.95 1282.85,575.356C1276.76,578.822 1270.24,581.423 1263.28,583.156C1256.37,584.877 1249.57,585.732 1242.88,585.732C1236.12,585.732 1229.57,584.859 1223.25,583.119C1216.68,581.316 1211.04,578.591 1206.28,575.005C1200.97,571.324 1197.05,566.676 1194.5,561.089C1191.91,555.435 1191.21,548.645 1192.71,540.695L1208.19,458.745ZM1315.74,577.31L1345.05,422.13L1350.94,417.243L1400.27,417.243C1420.38,417.243 1434.52,421.932 1442.97,430.389C1451.78,439.196 1455.03,452.295 1451.71,469.909C1449.78,480.104 1445.93,488.744 1440.23,495.865C1435.39,501.908 1428.42,507.045 1419.23,511.132L1437.5,576.815L1431.72,584.424L1399.24,584.424L1393.41,579.837L1378.46,518.167L1369.8,518.167L1358.21,579.537L1352.32,584.424L1321.63,584.424L1315.74,577.31ZM1382.64,450.167L1375.77,486.552L1385.98,486.552C1390.64,486.552 1394.46,486.14 1397.4,485.201C1399.83,484.426 1401.85,483.367 1403.45,481.923C1404.85,480.456 1405.94,478.649 1406.77,476.528C1407.81,473.858 1408.65,470.762 1409.32,467.246C1409.97,463.773 1410.3,460.721 1410.27,458.085C1410.25,456.417 1409.92,454.947 1409.18,453.698C1408.3,452.641 1406.85,451.993 1405,451.443C1402.03,450.559 1398.23,450.167 1393.61,450.167L1382.64,450.167ZM1446.18,575.744L1523.63,420.564L1529,417.243L1554.74,417.243L1560.69,422.521L1579.53,577.701L1573.57,584.424L1542.68,584.424L1536.7,578.923C1536.7,578.923 1534.38,551.077 1534.38,551.077L1501.65,551.077L1487.88,580.937L1482.43,584.424L1451.55,584.424L1446.18,575.744ZM1529.35,490.234L1516.56,518.154L1531.6,518.154L1529.35,490.234ZM1716.65,577.31L1745.96,422.13L1751.86,417.243L1797.28,417.243C1816.83,417.243 1830.81,421.506 1839.46,429.231C1848.76,437.543 1852.32,449.221 1849.44,464.46L1835.73,537.037C1832.64,553.396 1824.78,565.387 1812.36,573.157C1800.52,580.565 1784.85,584.424 1765.26,584.424L1722.55,584.424L1716.65,577.31ZM1783.56,450.167L1764.42,551.501L1771.32,551.501C1778.31,551.501 1783.57,550.532 1786.97,548.001C1790.09,545.685 1791.91,541.944 1792.85,536.99L1806.97,462.233C1807.72,458.289 1807.61,455.175 1805.81,453.015C1805.08,452.132 1803.84,451.634 1802.28,451.193C1799.77,450.48 1796.58,450.167 1792.73,450.167L1783.56,450.167ZM1884.74,577.31L1914.05,422.13L1919.95,417.243L1965.97,417.243C1974.98,417.243 1982.75,418.126 1989.29,419.836C1996.39,421.691 2002.51,424.994 2007.67,429.715C2013.15,434.735 2016.45,440.635 2017.65,447.359C2018.73,453.341 2018.4,461.442 2016.47,471.652C2015.07,479.105 2013.27,485.387 2011.12,490.511C2008.82,496.002 2005.19,501.184 2000.15,506.005C1994.41,511.643 1987.37,516.058 1978.99,519.201C1970.87,522.245 1960.68,523.834 1948.4,523.834L1937.74,523.834L1927.22,579.537L1921.32,584.424L1890.64,584.424L1884.74,577.31ZM1951.65,450.167L1943.95,490.911L1951.45,490.911C1956.82,490.911 1961.09,490.428 1964.24,489.299C1966.82,488.379 1968.87,487.175 1970.31,485.539L1970.41,485.426C1971.81,483.911 1972.79,482.025 1973.42,479.802C1974.28,476.762 1975.06,473.375 1975.76,469.643C1976.43,466.135 1976.96,462.802 1977.36,459.645C1977.62,457.621 1977.49,455.834 1976.78,454.305C1976.22,453.088 1975.12,452.261 1973.66,451.617C1971.24,450.547 1967.54,450.167 1962.62,450.167L1951.65,450.167ZM2007.16,577.31L2036.47,422.13L2042.37,417.243L2091.7,417.243C2111.8,417.243 2125.94,421.932 2134.4,430.389C2143.2,439.196 2146.46,452.295 2143.14,469.909C2141.21,480.104 2137.35,488.744 2131.65,495.865C2126.82,501.908 2119.85,507.045 2110.66,511.132L2128.93,576.815L2123.15,584.424L2090.66,584.424L2084.83,579.837L2069.89,518.167L2061.23,518.167L2049.64,579.537L2043.74,584.424L2013.06,584.424L2007.16,577.31ZM2074.07,450.167L2067.2,486.552L2077.41,486.552C2082.07,486.552 2085.88,486.14 2088.82,485.201C2091.25,484.426 2093.28,483.367 2094.87,481.923C2096.27,480.456 2097.37,478.649 2098.19,476.528C2099.24,473.858 2100.08,470.762 2100.74,467.246C2101.4,463.773 2101.73,460.721 2101.69,458.085C2101.67,456.417 2101.35,454.947 2100.61,453.698C2099.73,452.641 2098.27,451.993 2096.43,451.443C2093.46,450.559 2089.66,450.167 2085.04,450.167L2074.07,450.167ZM2136.2,577.31L2165.51,422.13L2171.41,417.243L2202.09,417.243L2207.99,424.357L2178.68,579.537L2172.78,584.424L2142.1,584.424L2136.2,577.31ZM2182.65,574.913L2239.49,496.163L2214.48,425.239L2220.14,417.243L2252.62,417.243L2258.35,421.442L2269.16,455.805L2294.33,419.806L2299.25,417.243L2331.73,417.243L2336.55,426.82L2283.59,498.136L2311.39,576.416L2305.73,584.424L2273.24,584.424L2267.54,580.268L2254.37,539.489L2224.93,581.848L2220.01,584.424L2187.52,584.424L2182.65,574.913Z"/>
            </clipPath>
            <g clip-path="url(#_clip1)">
                <g transform="matrix(1.44854,0,0,1,-514.739,-1.81899e-12)">
                    <rect x="1147.59" y="415.936" width="847.765" height="70.12" style="fill:rgb(251,171,34);"/>
                </g>
                <g transform="matrix(1.44854,0,0,1,-514.739,155.475)">
                    <rect x="1147.59" y="415.936" width="847.765" height="70.12" style="fill:rgb(204,6,161);"/>
                </g>
                <g transform="matrix(1.44854,0,0,0.797278,-514.739,84.3194)">
                    <rect x="1147.59" y="415.936" width="847.765" height="70.12" style="fill:rgb(255,116,0);"/>
                </g>
                <g transform="matrix(1.44854,0,0,0.266729,-514.739,304.993)">
                    <rect x="1147.59" y="415.936" width="847.765" height="70.12" style="fill:rgb(158,206,226);"/>
                </g>
                <g transform="matrix(1.44854,0,0,0.133365,-514.739,360.465)">
                    <rect x="1147.59" y="415.936" width="847.765" height="70.12" style="fill:rgb(246,248,255);"/>
                </g>
            </g>
            <path d="M1677.6,492.966L1690.97,422.13L1696.87,417.243L1727.55,417.243L1733.45,424.357L1704.14,579.537L1698.24,584.424L1669.37,584.424L1663.64,580.222L1641.14,508.587L1627.74,579.537L1621.84,584.424L1591.16,584.424L1585.26,577.31L1614.57,422.13L1620.47,417.243L1649.95,417.243L1655.68,421.485L1677.6,492.966ZM1208.19,458.745C1209.56,451.485 1212.53,445.073 1217.08,439.501C1221.45,434.14 1226.78,429.667 1233.07,426.086C1238.91,422.775 1245.32,420.245 1252.28,418.511C1259.19,416.79 1265.99,415.936 1272.68,415.936C1279.45,415.936 1285.99,416.809 1292.32,418.548C1298.82,420.335 1304.55,422.952 1309.51,426.364L1309.74,426.529C1314.78,430.357 1318.55,435.144 1321.07,440.886C1323.62,446.703 1324.28,453.392 1322.85,460.973L1321.37,468.819L1315.48,473.705L1284.79,473.705L1278.9,466.592L1280.38,458.745C1280.87,456.153 1280.66,454.121 1278.91,452.895C1276.19,450.99 1272.69,450.167 1268.49,450.167C1263.94,450.167 1259.8,451.171 1256.08,453.229C1253.1,454.881 1251.32,457.481 1250.66,460.973L1235.18,542.922C1234.69,545.514 1234.9,547.546 1236.65,548.772C1239.37,550.677 1242.87,551.501 1247.08,551.501C1251.63,551.501 1255.76,550.497 1259.48,548.438C1262.46,546.786 1264.24,544.186 1264.9,540.695L1269.08,518.603L1251.95,518.603L1246.05,511.489L1249.76,491.874L1255.65,486.987L1310.7,486.987L1316.6,494.101L1307.37,542.922C1305.94,550.532 1302.92,557.027 1298.4,562.438C1294.05,567.639 1288.87,571.95 1282.85,575.356C1276.76,578.822 1270.24,581.423 1263.28,583.156C1256.37,584.877 1249.57,585.732 1242.88,585.732C1236.12,585.732 1229.57,584.859 1223.25,583.119C1216.68,581.316 1211.04,578.591 1206.28,575.005C1200.97,571.324 1197.05,566.676 1194.5,561.089C1191.91,555.435 1191.21,548.645 1192.71,540.695L1208.19,458.745ZM1315.74,577.31L1345.05,422.13L1350.94,417.243L1400.27,417.243C1420.38,417.243 1434.52,421.932 1442.97,430.389C1451.78,439.196 1455.03,452.295 1451.71,469.909C1449.78,480.104 1445.93,488.744 1440.23,495.865C1435.39,501.908 1428.42,507.045 1419.23,511.132L1437.5,576.815L1431.72,584.424L1399.24,584.424L1393.41,579.837L1378.46,518.167L1369.8,518.167L1358.21,579.537L1352.32,584.424L1321.63,584.424L1315.74,577.31ZM1382.64,450.167L1375.77,486.552L1385.98,486.552C1390.64,486.552 1394.46,486.14 1397.4,485.201C1399.83,484.426 1401.85,483.367 1403.45,481.923C1404.85,480.456 1405.94,478.649 1406.77,476.528C1407.81,473.858 1408.65,470.762 1409.32,467.246C1409.97,463.773 1410.3,460.721 1410.27,458.085C1410.25,456.417 1409.92,454.947 1409.18,453.698C1408.3,452.641 1406.85,451.993 1405,451.443C1402.03,450.559 1398.23,450.167 1393.61,450.167L1382.64,450.167ZM1446.18,575.744L1523.63,420.564L1529,417.243L1554.74,417.243L1560.69,422.521L1579.53,577.701L1573.57,584.424L1542.68,584.424L1536.7,578.923C1536.7,578.923 1534.38,551.077 1534.38,551.077L1501.65,551.077L1487.88,580.937L1482.43,584.424L1451.55,584.424L1446.18,575.744ZM1529.35,490.234L1516.56,518.154L1531.6,518.154L1529.35,490.234ZM1716.65,577.31L1745.96,422.13L1751.86,417.243L1797.28,417.243C1816.83,417.243 1830.81,421.506 1839.46,429.231C1848.76,437.543 1852.32,449.221 1849.44,464.46L1835.73,537.037C1832.64,553.396 1824.78,565.387 1812.36,573.157C1800.52,580.565 1784.85,584.424 1765.26,584.424L1722.55,584.424L1716.65,577.31ZM1783.56,450.167L1764.42,551.501L1771.32,551.501C1778.31,551.501 1783.57,550.532 1786.97,548.001C1790.09,545.685 1791.91,541.944 1792.85,536.99L1806.97,462.233C1807.72,458.289 1807.61,455.175 1805.81,453.015C1805.08,452.132 1803.84,451.634 1802.28,451.193C1799.77,450.48 1796.58,450.167 1792.73,450.167L1783.56,450.167ZM1884.74,577.31L1914.05,422.13L1919.95,417.243L1965.97,417.243C1974.98,417.243 1982.75,418.126 1989.29,419.836C1996.39,421.691 2002.51,424.994 2007.67,429.715C2013.15,434.735 2016.45,440.635 2017.65,447.359C2018.73,453.341 2018.4,461.442 2016.47,471.652C2015.07,479.105 2013.27,485.387 2011.12,490.511C2008.82,496.002 2005.19,501.184 2000.15,506.005C1994.41,511.643 1987.37,516.058 1978.99,519.201C1970.87,522.245 1960.68,523.834 1948.4,523.834L1937.74,523.834L1927.22,579.537L1921.32,584.424L1890.64,584.424L1884.74,577.31ZM1951.65,450.167L1943.95,490.911L1951.45,490.911C1956.82,490.911 1961.09,490.428 1964.24,489.299C1966.82,488.379 1968.87,487.175 1970.31,485.539L1970.41,485.426C1971.81,483.911 1972.79,482.025 1973.42,479.802C1974.28,476.762 1975.06,473.375 1975.76,469.643C1976.43,466.135 1976.96,462.802 1977.36,459.645C1977.62,457.621 1977.49,455.834 1976.78,454.305C1976.22,453.088 1975.12,452.261 1973.66,451.617C1971.24,450.547 1967.54,450.167 1962.62,450.167L1951.65,450.167ZM2007.16,577.31L2036.47,422.13L2042.37,417.243L2091.7,417.243C2111.8,417.243 2125.94,421.932 2134.4,430.389C2143.2,439.196 2146.46,452.295 2143.14,469.909C2141.21,480.104 2137.35,488.744 2131.65,495.865C2126.82,501.908 2119.85,507.045 2110.66,511.132L2128.93,576.815L2123.15,584.424L2090.66,584.424L2084.83,579.837L2069.89,518.167L2061.23,518.167L2049.64,579.537L2043.74,584.424L2013.06,584.424L2007.16,577.31ZM2074.07,450.167L2067.2,486.552L2077.41,486.552C2082.07,486.552 2085.88,486.14 2088.82,485.201C2091.25,484.426 2093.28,483.367 2094.87,481.923C2096.27,480.456 2097.37,478.649 2098.19,476.528C2099.24,473.858 2100.08,470.762 2100.74,467.246C2101.4,463.773 2101.73,460.721 2101.69,458.085C2101.67,456.417 2101.35,454.947 2100.61,453.698C2099.73,452.641 2098.27,451.993 2096.43,451.443C2093.46,450.559 2089.66,450.167 2085.04,450.167L2074.07,450.167ZM2136.2,577.31L2165.51,422.13L2171.41,417.243L2202.09,417.243L2207.99,424.357L2178.68,579.537L2172.78,584.424L2142.1,584.424L2136.2,577.31ZM2182.65,574.913L2239.49,496.163L2214.48,425.239L2220.14,417.243L2252.62,417.243L2258.35,421.442L2269.16,455.805L2294.33,419.806L2299.25,417.243L2331.73,417.243L2336.55,426.82L2283.59,498.136L2311.39,576.416L2305.73,584.424L2273.24,584.424L2267.54,580.268L2254.37,539.489L2224.93,581.848L2220.01,584.424L2187.52,584.424L2182.65,574.913Z" style="fill:none;stroke:white;stroke-width:1.45px;stroke-linecap:round;stroke-linejoin:bevel;stroke-miterlimit:2;"/>
        </g>
        <g transform="matrix(1.71988,0,0,3.08135,-1648.56,-894.181)">
            <g transform="matrix(0.439789,0,0,0.439789,573.94,271.468)">
                <rect x="1061.09" y="521.165" width="18.292" height="18.292" style="fill:white;"/>
            </g>
            <g transform="matrix(0.439789,0,0,0.439789,557.85,287.557)">
                <rect x="1061.09" y="521.165" width="18.292" height="18.292" style="fill:white;"/>
            </g>
            <g transform="matrix(0.439789,0,0,0.439789,590.025,287.557)">
                <rect x="1061.09" y="521.165" width="18.292" height="18.292" style="fill:white;"/>
            </g>
            <g transform="matrix(0.439789,0,0,0.439789,598.069,295.602)">
                <rect x="1061.09" y="521.165" width="18.292" height="18.292" style="fill:white;"/>
            </g>
            <g transform="matrix(0.439789,0,0,0.439789,590.025,255.378)">
                <rect x="1061.09" y="521.165" width="18.292" height="18.292" style="fill:white;"/>
            </g>
            <g transform="matrix(0.439789,0,0,0.439789,598.069,247.333)">
                <rect x="1061.09" y="521.165" width="18.292" height="18.292" style="fill:white;"/>
            </g>
            <g transform="matrix(0.439789,0,0,0.439789,606.114,239.289)">
                <rect x="1061.09" y="521.165" width="18.292" height="18.292" style="fill:white;"/>
            </g>
            <g transform="matrix(0.439789,0,0,0.439789,606.114,303.647)">
                <rect x="1061.09" y="521.165" width="18.292" height="18.292" style="fill:white;"/>
            </g>
            <g transform="matrix(0.439789,0,0,0.439789,541.76,303.647)">
                <rect x="1061.09" y="521.165" width="18.292" height="18.292" style="fill:white;"/>
            </g>
            <g transform="matrix(0.439789,0,0,0.439789,549.806,295.602)">
                <rect x="1061.09" y="521.165" width="18.292" height="18.292" style="fill:white;"/>
            </g>
            <g transform="matrix(0.439789,0,0,0.439789,573.94,263.423)">
                <rect x="1061.09" y="521.165" width="18.292" height="18.292" style="fill:white;"/>
            </g>
            <g transform="matrix(0.439789,0,0,0.439789,573.94,247.386)">
                <rect x="1061.09" y="521.165" width="18.292" height="18.292" style="fill:white;"/>
            </g>
            <g transform="matrix(0.439789,0,0,0.439789,573.94,239.341)">
                <rect x="1061.09" y="521.165" width="18.292" height="18.292" style="fill:white;"/>
            </g>
            <g transform="matrix(0.439789,0,0,0.439789,573.94,223.2)">
                <rect x="1061.09" y="521.165" width="18.292" height="18.292" style="fill:white;"/>
            </g>
            <g transform="matrix(0.439789,0,0,0.439789,573.94,319.853)">
                <rect x="1061.09" y="521.165" width="18.292" height="18.292" style="fill:white;"/>
            </g>
            <g transform="matrix(0.439789,0,0,0.439789,581.984,271.468)">
                <rect x="1061.09" y="521.165" width="18.292" height="18.292" style="fill:white;"/>
            </g>
            <g transform="matrix(0.439789,0,0,0.439789,598.074,271.468)">
                <rect x="1061.09" y="521.165" width="18.292" height="18.292" style="fill:white;"/>
            </g>
            <g transform="matrix(0.439789,0,0,0.439789,606.118,271.468)">
                <rect x="1061.09" y="521.165" width="18.292" height="18.292" style="fill:white;"/>
            </g>
            <g transform="matrix(0.439789,0,0,0.439789,622.576,271.468)">
                <rect x="1061.09" y="521.165" width="18.292" height="18.292" style="fill:white;"/>
            </g>
            <g transform="matrix(0.439789,0,0,0.439789,525.294,271.468)">
                <rect x="1061.09" y="521.165" width="18.292" height="18.292" style="fill:white;"/>
            </g>
            <g transform="matrix(0.439789,0,0,0.439789,573.94,295.602)">
                <rect x="1061.09" y="521.165" width="18.292" height="18.292" style="fill:white;"/>
            </g>
            <g transform="matrix(0.439789,0,0,0.439789,573.94,303.647)">
                <rect x="1061.09" y="521.165" width="18.292" height="18.292" style="fill:white;"/>
            </g>
            <g transform="matrix(0.439789,0,0,0.439789,565.895,311.691)">
                <rect x="1061.09" y="521.165" width="18.292" height="18.292" style="fill:white;"/>
            </g>
            <g transform="matrix(0.439789,0,0,0.439789,565.895,231.426)">
                <rect x="1061.09" y="521.165" width="18.292" height="18.292" style="fill:white;"/>
            </g>
            <g transform="matrix(0.439789,0,0,0.439789,582.078,311.691)">
                <rect x="1061.09" y="521.165" width="18.292" height="18.292" style="fill:white;"/>
            </g>
            <g transform="matrix(0.439789,0,0,0.439789,582.078,231.426)">
                <rect x="1061.09" y="521.165" width="18.292" height="18.292" style="fill:white;"/>
            </g>
            <g transform="matrix(0.439789,0,0,0.439789,549.737,271.468)">
                <rect x="1061.09" y="521.165" width="18.292" height="18.292" style="fill:white;"/>
            </g>
            <g transform="matrix(0.439789,0,0,0.439789,541.692,271.468)">
                <rect x="1061.09" y="521.165" width="18.292" height="18.292" style="fill:white;"/>
            </g>
            <g transform="matrix(0.439789,0,0,0.439789,573.94,279.513)">
                <rect x="1061.09" y="521.165" width="18.292" height="18.292" style="fill:white;"/>
            </g>
            <g transform="matrix(0.439789,0,0,0.439789,565.895,271.468)">
                <rect x="1061.09" y="521.165" width="18.292" height="18.292" style="fill:white;"/>
            </g>
            <g transform="matrix(0.439789,0,0,0.439789,557.85,255.385)">
                <rect x="1061.09" y="521.165" width="18.292" height="18.292" style="fill:white;"/>
            </g>
            <g transform="matrix(0.439789,0,0,0.439789,549.806,247.341)">
                <rect x="1061.09" y="521.165" width="18.292" height="18.292" style="fill:white;"/>
            </g>
            <g transform="matrix(0.439789,0,0,0.439789,541.692,239.296)">
                <rect x="1061.09" y="521.165" width="18.292" height="18.292" style="fill:white;"/>
            </g>
            <g transform="matrix(0.439789,0,0,0.439789,533.647,231.251)">
                <rect x="1061.09" y="521.165" width="18.292" height="18.292" style="fill:white;"/>
            </g>
            <g transform="matrix(0.439789,0,0,0.439789,614.163,231.251)">
                <rect x="1061.09" y="521.165" width="18.292" height="18.292" style="fill:white;"/>
            </g>
            <g transform="matrix(0.439789,0,0,0.439789,614.163,311.691)">
                <rect x="1061.09" y="521.165" width="18.292" height="18.292" style="fill:white;"/>
            </g>
            <g transform="matrix(0.439789,0,0,0.439789,533.647,311.691)">
                <rect x="1061.09" y="521.165" width="18.292" height="18.292" style="fill:white;"/>
            </g>
            <g transform="matrix(0.439789,0,0,0.439789,581.984,255.379)">
                <rect x="1061.09" y="521.165" width="18.292" height="18.292" style="fill:white;"/>
            </g>
            <g transform="matrix(0.439789,0,0,0.439789,590.029,263.423)">
                <rect x="1061.09" y="521.165" width="18.292" height="18.292" style="fill:white;"/>
            </g>
            <g transform="matrix(0.439789,0,0,0.439789,614.317,263.423)">
                <rect x="1061.09" y="521.165" width="18.292" height="18.292" style="fill:white;"/>
            </g>
            <g transform="matrix(0.439789,0,0,0.439789,533.69,263.423)">
                <rect x="1061.09" y="521.165" width="18.292" height="18.292" style="fill:white;"/>
            </g>
            <g transform="matrix(0.439789,0,0,0.439789,581.984,287.557)">
                <rect x="1061.09" y="521.165" width="18.292" height="18.292" style="fill:white;"/>
            </g>
            <g transform="matrix(0.439789,0,0,0.439789,590.029,279.513)">
                <rect x="1061.09" y="521.165" width="18.292" height="18.292" style="fill:white;"/>
            </g>
            <g transform="matrix(0.439789,0,0,0.439789,614.317,279.513)">
                <rect x="1061.09" y="521.165" width="18.292" height="18.292" style="fill:white;"/>
            </g>
            <g transform="matrix(0.439789,0,0,0.439789,533.69,279.513)">
                <rect x="1061.09" y="521.165" width="18.292" height="18.292" style="fill:white;"/>
            </g>
            <g transform="matrix(0.439789,0,0,0.439789,565.895,287.557)">
                <rect x="1061.09" y="521.165" width="18.292" height="18.292" style="fill:white;"/>
            </g>
            <g transform="matrix(0.439789,0,0,0.439789,557.85,279.513)">
                <rect x="1061.09" y="521.165" width="18.292" height="18.292" style="fill:white;"/>
            </g>
            <g transform="matrix(0.439789,0,0,0.439789,557.85,263.423)">
                <rect x="1061.09" y="521.165" width="18.292" height="18.292" style="fill:white;"/>
            </g>
            <g transform="matrix(0.439789,0,0,0.439789,565.895,255.379)">
                <rect x="1061.09" y="521.165" width="18.292" height="18.292" style="fill:white;"/>
            </g>
        </g>
        <g transform="matrix(1.71988,0,0,3.08135,626.863,-894.181)">
            <g transform="matrix(0.439789,0,0,0.439789,573.94,271.468)">
                <rect x="1061.09" y="521.165" width="18.292" height="18.292" style="fill:white;"/>
            </g>
            <g transform="matrix(0.439789,0,0,0.439789,557.85,287.557)">
                <rect x="1061.09" y="521.165" width="18.292" height="18.292" style="fill:white;"/>
            </g>
            <g transform="matrix(0.439789,0,0,0.439789,590.025,287.557)">
                <rect x="1061.09" y="521.165" width="18.292" height="18.292" style="fill:white;"/>
            </g>
            <g transform="matrix(0.439789,0,0,0.439789,598.069,295.602)">
                <rect x="1061.09" y="521.165" width="18.292" height="18.292" style="fill:white;"/>
            </g>
            <g transform="matrix(0.439789,0,0,0.439789,590.025,255.378)">
                <rect x="1061.09" y="521.165" width="18.292" height="18.292" style="fill:white;"/>
            </g>
            <g transform="matrix(0.439789,0,0,0.439789,598.069,247.333)">
                <rect x="1061.09" y="521.165" width="18.292" height="18.292" style="fill:white;"/>
            </g>
            <g transform="matrix(0.439789,0,0,0.439789,606.114,239.289)">
                <rect x="1061.09" y="521.165" width="18.292" height="18.292" style="fill:white;"/>
            </g>
            <g transform="matrix(0.439789,0,0,0.439789,606.114,303.647)">
                <rect x="1061.09" y="521.165" width="18.292" height="18.292" style="fill:white;"/>
            </g>
            <g transform="matrix(0.439789,0,0,0.439789,541.76,303.647)">
                <rect x="1061.09" y="521.165" width="18.292" height="18.292" style="fill:white;"/>
            </g>
            <g transform="matrix(0.439789,0,0,0.439789,549.806,295.602)">
                <rect x="1061.09" y="521.165" width="18.292" height="18.292" style="fill:white;"/>
            </g>
            <g transform="matrix(0.439789,0,0,0.439789,573.94,263.423)">
                <rect x="1061.09" y="521.165" width="18.292" height="18.292" style="fill:white;"/>
            </g>
            <g transform="matrix(0.439789,0,0,0.439789,573.94,247.386)">
                <rect x="1061.09" y="521.165" width="18.292" height="18.292" style="fill:white;"/>
            </g>
            <g transform="matrix(0.439789,0,0,0.439789,573.94,239.341)">
                <rect x="1061.09" y="521.165" width="18.292" height="18.292" style="fill:white;"/>
            </g>
            <g transform="matrix(0.439789,0,0,0.439789,573.94,223.2)">
                <rect x="1061.09" y="521.165" width="18.292" height="18.292" style="fill:white;"/>
            </g>
            <g transform="matrix(0.439789,0,0,0.439789,573.94,319.853)">
                <rect x="1061.09" y="521.165" width="18.292" height="18.292" style="fill:white;"/>
            </g>
            <g transform="matrix(0.439789,0,0,0.439789,581.984,271.468)">
                <rect x="1061.09" y="521.165" width="18.292" height="18.292" style="fill:white;"/>
            </g>
            <g transform="matrix(0.439789,0,0,0.439789,598.074,271.468)">
                <rect x="1061.09" y="521.165" width="18.292" height="18.292" style="fill:white;"/>
            </g>
            <g transform="matrix(0.439789,0,0,0.439789,606.118,271.468)">
                <rect x="1061.09" y="521.165" width="18.292" height="18.292" style="fill:white;"/>
            </g>
            <g transform="matrix(0.439789,0,0,0.439789,622.576,271.468)">
                <rect x="1061.09" y="521.165" width="18.292" height="18.292" style="fill:white;"/>
            </g>
            <g transform="matrix(0.439789,0,0,0.439789,525.294,271.468)">
                <rect x="1061.09" y="521.165" width="18.292" height="18.292" style="fill:white;"/>
            </g>
            <g transform="matrix(0.439789,0,0,0.439789,573.94,295.602)">
                <rect x="1061.09" y="521.165" width="18.292" height="18.292" style="fill:white;"/>
            </g>
            <g transform="matrix(0.439789,0,0,0.439789,573.94,303.647)">
                <rect x="1061.09" y="521.165" width="18.292" height="18.292" style="fill:white;"/>
            </g>
            <g transform="matrix(0.439789,0,0,0.439789,565.895,311.691)">
                <rect x="1061.09" y="521.165" width="18.292" height="18.292" style="fill:white;"/>
            </g>
            <g transform="matrix(0.439789,0,0,0.439789,565.895,231.426)">
                <rect x="1061.09" y="521.165" width="18.292" height="18.292" style="fill:white;"/>
            </g>
            <g transform="matrix(0.439789,0,0,0.439789,582.078,311.691)">
                <rect x="1061.09" y="521.165" width="18.292" height="18.292" style="fill:white;"/>
            </g>
            <g transform="matrix(0.439789,0,0,0.439789,582.078,231.426)">
                <rect x="1061.09" y="521.165" width="18.292" height="18.292" style="fill:white;"/>
            </g>
            <g transform="matrix(0.439789,0,0,0.439789,549.737,271.468)">
                <rect x="1061.09" y="521.165" width="18.292" height="18.292" style="fill:white;"/>
            </g>
            <g transform="matrix(0.439789,0,0,0.439789,541.692,271.468)">
                <rect x="1061.09" y="521.165" width="18.292" height="18.292" style="fill:white;"/>
            </g>
            <g transform="matrix(0.439789,0,0,0.439789,573.94,279.513)">
                <rect x="1061.09" y="521.165" width="18.292" height="18.292" style="fill:white;"/>
            </g>
            <g transform="matrix(0.439789,0,0,0.439789,565.895,271.468)">
                <rect x="1061.09" y="521.165" width="18.292" height="18.292" style="fill:white;"/>
            </g>
            <g transform="matrix(0.439789,0,0,0.439789,557.85,255.385)">
                <rect x="1061.09" y="521.165" width="18.292" height="18.292" style="fill:white;"/>
            </g>
            <g transform="matrix(0.439789,0,0,0.439789,549.806,247.341)">
                <rect x="1061.09" y="521.165" width="18.292" height="18.292" style="fill:white;"/>
            </g>
            <g transform="matrix(0.439789,0,0,0.439789,541.692,239.296)">
                <rect x="1061.09" y="521.165" width="18.292" height="18.292" style="fill:white;"/>
            </g>
            <g transform="matrix(0.439789,0,0,0.439789,533.647,231.251)">
                <rect x="1061.09" y="521.165" width="18.292" height="18.292" style="fill:white;"/>
            </g>
            <g transform="matrix(0.439789,0,0,0.439789,614.163,231.251)">
                <rect x="1061.09" y="521.165" width="18.292" height="18.292" style="fill:white;"/>
            </g>
            <g transform="matrix(0.439789,0,0,0.439789,614.163,311.691)">
                <rect x="1061.09" y="521.165" width="18.292" height="18.292" style="fill:white;"/>
            </g>
            <g transform="matrix(0.439789,0,0,0.439789,533.647,311.691)">
                <rect x="1061.09" y="521.165" width="18.292" height="18.292" style="fill:white;"/>
            </g>
            <g transform="matrix(0.439789,0,0,0.439789,581.984,255.379)">
                <rect x="1061.09" y="521.165" width="18.292" height="18.292" style="fill:white;"/>
            </g>
            <g transform="matrix(0.439789,0,0,0.439789,590.029,263.423)">
                <rect x="1061.09" y="521.165" width="18.292" height="18.292" style="fill:white;"/>
            </g>
            <g transform="matrix(0.439789,0,0,0.439789,614.317,263.423)">
                <rect x="1061.09" y="521.165" width="18.292" height="18.292" style="fill:white;"/>
            </g>
            <g transform="matrix(0.439789,0,0,0.439789,533.69,263.423)">
                <rect x="1061.09" y="521.165" width="18.292" height="18.292" style="fill:white;"/>
            </g>
            <g transform="matrix(0.439789,0,0,0.439789,581.984,287.557)">
                <rect x="1061.09" y="521.165" width="18.292" height="18.292" style="fill:white;"/>
            </g>
            <g transform="matrix(0.439789,0,0,0.439789,590.029,279.513)">
                <rect x="1061.09" y="521.165" width="18.292" height="18.292" style="fill:white;"/>
            </g>
            <g transform="matrix(0.439789,0,0,0.439789,614.317,279.513)">
                <rect x="1061.09" y="521.165" width="18.292" height="18.292" style="fill:white;"/>
            </g>
            <g transform="matrix(0.439789,0,0,0.439789,533.69,279.513)">
                <rect x="1061.09" y="521.165" width="18.292" height="18.292" style="fill:white;"/>
            </g>
            <g transform="matrix(0.439789,0,0,0.439789,565.895,287.557)">
                <rect x="1061.09" y="521.165" width="18.292" height="18.292" style="fill:white;"/>
            </g>
            <g transform="matrix(0.439789,0,0,0.439789,557.85,279.513)">
                <rect x="1061.09" y="521.165" width="18.292" height="18.292" style="fill:white;"/>
            </g>
            <g transform="matrix(0.439789,0,0,0.439789,557.85,263.423)">
                <rect x="1061.09" y="521.165" width="18.292" height="18.292" style="fill:white;"/>
            </g>
            <g transform="matrix(0.439789,0,0,0.439789,565.895,255.379)">
                <rect x="1061.09" y="521.165" width="18.292" height="18.292" style="fill:white;"/>
            </g>
        </g>
        <g transform="matrix(1.71988,0,0,3.08135,-1450.73,-376.729)">
            <g transform="matrix(0.439789,0,0,0.439789,573.94,271.468)">
                <rect x="1061.09" y="521.165" width="18.292" height="18.292" style="fill:white;"/>
            </g>
            <g transform="matrix(0.439789,0,0,0.439789,573.94,263.423)">
                <rect x="1061.09" y="521.165" width="18.292" height="18.292" style="fill:white;"/>
            </g>
            <g transform="matrix(0.439789,0,0,0.439789,573.94,247.386)">
                <rect x="1061.09" y="521.165" width="18.292" height="18.292" style="fill:white;"/>
            </g>
            <g transform="matrix(0.439789,0,0,0.439789,573.94,239.341)">
                <rect x="1061.09" y="521.165" width="18.292" height="18.292" style="fill:white;"/>
            </g>
            <g transform="matrix(0.439789,0,0,0.439789,581.984,271.468)">
                <rect x="1061.09" y="521.165" width="18.292" height="18.292" style="fill:white;"/>
            </g>
            <g transform="matrix(0.439789,0,0,0.439789,598.074,271.468)">
                <rect x="1061.09" y="521.165" width="18.292" height="18.292" style="fill:white;"/>
            </g>
            <g transform="matrix(0.439789,0,0,0.439789,606.118,271.468)">
                <rect x="1061.09" y="521.165" width="18.292" height="18.292" style="fill:white;"/>
            </g>
            <g transform="matrix(0.439789,0,0,0.439789,573.94,295.602)">
                <rect x="1061.09" y="521.165" width="18.292" height="18.292" style="fill:white;"/>
            </g>
            <g transform="matrix(0.439789,0,0,0.439789,573.94,303.647)">
                <rect x="1061.09" y="521.165" width="18.292" height="18.292" style="fill:white;"/>
            </g>
            <g transform="matrix(0.439789,0,0,0.439789,549.737,271.468)">
                <rect x="1061.09" y="521.165" width="18.292" height="18.292" style="fill:white;"/>
            </g>
            <g transform="matrix(0.439789,0,0,0.439789,541.692,271.468)">
                <rect x="1061.09" y="521.165" width="18.292" height="18.292" style="fill:white;"/>
            </g>
            <g transform="matrix(0.439789,0,0,0.439789,573.94,279.513)">
                <rect x="1061.09" y="521.165" width="18.292" height="18.292" style="fill:white;"/>
            </g>
            <g transform="matrix(0.439789,0,0,0.439789,565.895,271.468)">
                <rect x="1061.09" y="521.165" width="18.292" height="18.292" style="fill:white;"/>
            </g>
            <g transform="matrix(0.439789,0,0,0.439789,581.984,255.379)">
                <rect x="1061.09" y="521.165" width="18.292" height="18.292" style="fill:white;"/>
            </g>
            <g transform="matrix(0.439789,0,0,0.439789,590.029,263.423)">
                <rect x="1061.09" y="521.165" width="18.292" height="18.292" style="fill:white;"/>
            </g>
            <g transform="matrix(0.439789,0,0,0.439789,581.984,287.557)">
                <rect x="1061.09" y="521.165" width="18.292" height="18.292" style="fill:white;"/>
            </g>
            <g transform="matrix(0.439789,0,0,0.439789,590.029,279.513)">
                <rect x="1061.09" y="521.165" width="18.292" height="18.292" style="fill:white;"/>
            </g>
            <g transform="matrix(0.439789,0,0,0.439789,565.895,287.557)">
                <rect x="1061.09" y="521.165" width="18.292" height="18.292" style="fill:white;"/>
            </g>
            <g transform="matrix(0.439789,0,0,0.439789,557.85,279.513)">
                <rect x="1061.09" y="521.165" width="18.292" height="18.292" style="fill:white;"/>
            </g>
            <g transform="matrix(0.439789,0,0,0.439789,557.85,263.423)">
                <rect x="1061.09" y="521.165" width="18.292" height="18.292" style="fill:white;"/>
            </g>
            <g transform="matrix(0.439789,0,0,0.439789,565.895,255.379)">
                <rect x="1061.09" y="521.165" width="18.292" height="18.292" style="fill:white;"/>
            </g>
        </g>
        <g transform="matrix(1.71988,0,0,3.08135,-1389.3,-1377.41)">
            <g transform="matrix(0.439789,0,0,0.439789,574.161,271.528)">
                <rect x="1061.09" y="521.165" width="18.292" height="18.292" style="fill:white;"/>
            </g>
            <g transform="matrix(0.439789,0,0,0.439789,589.938,255.379)">
                <rect x="1061.09" y="521.165" width="18.292" height="18.292" style="fill:white;"/>
            </g>
            <g transform="matrix(0.439789,0,0,0.439789,589.938,287.536)">
                <rect x="1061.09" y="521.165" width="18.292" height="18.292" style="fill:white;"/>
            </g>
            <g transform="matrix(0.439789,0,0,0.439789,557.91,287.577)">
                <rect x="1061.09" y="521.165" width="18.292" height="18.292" style="fill:white;"/>
            </g>
            <g transform="matrix(0.439789,0,0,0.439789,557.609,255.379)">
                <rect x="1061.09" y="521.165" width="18.292" height="18.292" style="fill:white;"/>
            </g>
            <g transform="matrix(0.439789,0,0,0.439789,565.92,279.533)">
                <rect x="1061.09" y="521.165" width="18.292" height="18.292" style="fill:white;"/>
            </g>
            <g transform="matrix(0.439789,0,0,0.439789,565.92,263.305)">
                <rect x="1061.09" y="521.165" width="18.292" height="18.292" style="fill:white;"/>
            </g>
            <g transform="matrix(0.439789,0,0,0.439789,582.005,263.305)">
                <rect x="1061.09" y="521.165" width="18.292" height="18.292" style="fill:white;"/>
            </g>
            <g transform="matrix(0.439789,0,0,0.439789,582.005,279.533)">
                <rect x="1061.09" y="521.165" width="18.292" height="18.292" style="fill:white;"/>
            </g>
        </g>
        <g transform="matrix(1.71988,0,0,3.08135,274.915,-1352.62)">
            <g transform="matrix(0.439789,0,0,0.439789,574.161,271.528)">
                <rect x="1061.09" y="521.165" width="18.292" height="18.292" style="fill:white;"/>
            </g>
            <g transform="matrix(0.439789,0,0,0.439789,589.938,255.379)">
                <rect x="1061.09" y="521.165" width="18.292" height="18.292" style="fill:white;"/>
            </g>
            <g transform="matrix(0.439789,0,0,0.439789,589.938,287.536)">
                <rect x="1061.09" y="521.165" width="18.292" height="18.292" style="fill:white;"/>
            </g>
            <g transform="matrix(0.439789,0,0,0.439789,557.91,287.577)">
                <rect x="1061.09" y="521.165" width="18.292" height="18.292" style="fill:white;"/>
            </g>
            <g transform="matrix(0.439789,0,0,0.439789,557.609,255.379)">
                <rect x="1061.09" y="521.165" width="18.292" height="18.292" style="fill:white;"/>
            </g>
            <g transform="matrix(0.439789,0,0,0.439789,565.92,279.533)">
                <rect x="1061.09" y="521.165" width="18.292" height="18.292" style="fill:white;"/>
            </g>
            <g transform="matrix(0.439789,0,0,0.439789,565.92,263.305)">
                <rect x="1061.09" y="521.165" width="18.292" height="18.292" style="fill:white;"/>
            </g>
            <g transform="matrix(0.439789,0,0,0.439789,582.005,263.305)">
                <rect x="1061.09" y="521.165" width="18.292" height="18.292" style="fill:white;"/>
            </g>
            <g transform="matrix(0.439789,0,0,0.439789,582.005,279.533)">
                <rect x="1061.09" y="521.165" width="18.292" height="18.292" style="fill:white;"/>
            </g>
        </g>
        <g transform="matrix(1.71988,0,0,3.08135,323.815,-376.729)">
            <g transform="matrix(0.439789,0,0,0.439789,573.94,271.468)">
                <rect x="1061.09" y="521.165" width="18.292" height="18.292" style="fill:white;"/>
            </g>
            <g transform="matrix(0.439789,0,0,0.439789,573.94,263.423)">
                <rect x="1061.09" y="521.165" width="18.292" height="18.292" style="fill:white;"/>
            </g>
            <g transform="matrix(0.439789,0,0,0.439789,573.94,247.386)">
                <rect x="1061.09" y="521.165" width="18.292" height="18.292" style="fill:white;"/>
            </g>
            <g transform="matrix(0.439789,0,0,0.439789,573.94,239.341)">
                <rect x="1061.09" y="521.165" width="18.292" height="18.292" style="fill:white;"/>
            </g>
            <g transform="matrix(0.439789,0,0,0.439789,581.984,271.468)">
                <rect x="1061.09" y="521.165" width="18.292" height="18.292" style="fill:white;"/>
            </g>
            <g transform="matrix(0.439789,0,0,0.439789,598.074,271.468)">
                <rect x="1061.09" y="521.165" width="18.292" height="18.292" style="fill:white;"/>
            </g>
            <g transform="matrix(0.439789,0,0,0.439789,606.118,271.468)">
                <rect x="1061.09" y="521.165" width="18.292" height="18.292" style="fill:white;"/>
            </g>
            <g transform="matrix(0.439789,0,0,0.439789,573.94,295.602)">
                <rect x="1061.09" y="521.165" width="18.292" height="18.292" style="fill:white;"/>
            </g>
            <g transform="matrix(0.439789,0,0,0.439789,573.94,303.647)">
                <rect x="1061.09" y="521.165" width="18.292" height="18.292" style="fill:white;"/>
            </g>
            <g transform="matrix(0.439789,0,0,0.439789,549.737,271.468)">
                <rect x="1061.09" y="521.165" width="18.292" height="18.292" style="fill:white;"/>
            </g>
            <g transform="matrix(0.439789,0,0,0.439789,541.692,271.468)">
                <rect x="1061.09" y="521.165" width="18.292" height="18.292" style="fill:white;"/>
            </g>
            <g transform="matrix(0.439789,0,0,0.439789,573.94,279.513)">
                <rect x="1061.09" y="521.165" width="18.292" height="18.292" style="fill:white;"/>
            </g>
            <g transform="matrix(0.439789,0,0,0.439789,565.895,271.468)">
                <rect x="1061.09" y="521.165" width="18.292" height="18.292" style="fill:white;"/>
            </g>
            <g transform="matrix(0.439789,0,0,0.439789,581.984,255.379)">
                <rect x="1061.09" y="521.165" width="18.292" height="18.292" style="fill:white;"/>
            </g>
            <g transform="matrix(0.439789,0,0,0.439789,590.029,263.423)">
                <rect x="1061.09" y="521.165" width="18.292" height="18.292" style="fill:white;"/>
            </g>
            <g transform="matrix(0.439789,0,0,0.439789,581.984,287.557)">
                <rect x="1061.09" y="521.165" width="18.292" height="18.292" style="fill:white;"/>
            </g>
            <g transform="matrix(0.439789,0,0,0.439789,590.029,279.513)">
                <rect x="1061.09" y="521.165" width="18.292" height="18.292" style="fill:white;"/>
            </g>
            <g transform="matrix(0.439789,0,0,0.439789,565.895,287.557)">
                <rect x="1061.09" y="521.165" width="18.292" height="18.292" style="fill:white;"/>
            </g>
            <g transform="matrix(0.439789,0,0,0.439789,557.85,279.513)">
                <rect x="1061.09" y="521.165" width="18.292" height="18.292" style="fill:white;"/>
            </g>
            <g transform="matrix(0.439789,0,0,0.439789,557.85,263.423)">
                <rect x="1061.09" y="521.165" width="18.292" height="18.292" style="fill:white;"/>
            </g>
            <g transform="matrix(0.439789,0,0,0.439789,565.895,255.379)">
                <rect x="1061.09" y="521.165" width="18.292" height="18.292" style="fill:white;"/>
            </g>
        </g>
    </g>
</svg>
